<svg id="OBJECTS" xmlns="http://www.w3.org/2000/svg" viewBox="0 0 424.121 393.271">
  <defs>
    <style>
      .cls-1, .cls-25 {
        fill: #fff;
      }

      .cls-1, .cls-10, .cls-11, .cls-12, .cls-13, .cls-14, .cls-15, .cls-16, .cls-18, .cls-19, .cls-2, .cls-20, .cls-21, .cls-22, .cls-23, .cls-24, .cls-26, .cls-3, .cls-4, .cls-6, .cls-7, .cls-8, .cls-9 {
        fill-rule: evenodd;
      }

      .cls-2 {
        fill: #fde8c5;
      }

      .cls-3, .cls-5 {
        fill: #f6d7a9;
      }

      .cls-4 {
        fill: #ddad85;
      }

      .cls-6 {
        fill: #28192f;
      }

      .cls-7 {
        fill: #ef8871;
      }

      .cls-8 {
        fill: #ffb9a9;
      }

      .cls-9 {
        fill: #b382c9;
      }

      .cls-10 {
        fill: #50315e;
      }

      .cls-11 {
        fill: #784a8d;
      }

      .cls-12 {
        fill: #f9d8cf;
      }

      .cls-13 {
        fill: #cf2523;
      }

      .cls-14 {
        fill: #8d1d22;
      }

      .cls-15 {
        fill: #e74142;
      }

      .cls-16 {
        fill: #e8685b;
      }

      .cls-17 {
        fill: #ff7fa0;
      }

      .cls-18 {
        fill: #210309;
      }

      .cls-19 {
        fill: #fdf3f2;
      }

      .cls-20 {
        fill: #ff8aab;
      }

      .cls-21 {
        fill: #bf6780;
      }

      .cls-22 {
        fill: #a063bc;
      }

      .cls-23 {
        fill: #fce6d7;
      }

      .cls-24 {
        fill: #ffd0dd;
      }

      .cls-26 {
        fill: #2e1838;
      }

      .cls-27 {
        fill: #ffe0d9;
      }
    </style>
  </defs>
  <title>female teacher</title>
  <path class="cls-1" d="M106.111,412.2A68.373,68.373,0,0,1,37.94,344.029h0a68.373,68.373,0,0,1,68.172-68.172h0a28.908,28.908,0,0,0,28.824-28.824h0a28.91,28.91,0,0,0-28.824-28.825h-3.431a30.056,30.056,0,0,1-29.968-29.968h0a30.056,30.056,0,0,1,29.968-29.968H113.2A11.7,11.7,0,0,0,124.871,146.6h0A11.7,11.7,0,0,0,113.2,134.939h-7.732a8.075,8.075,0,0,1-8.052-8.052h0a8.075,8.075,0,0,1,8.052-8.052h51.982a12.69,12.69,0,0,0,12.652-12.653h0A12.689,12.689,0,0,0,157.454,93.53H141.911a8.076,8.076,0,0,1-8.052-8.052h0a8.076,8.076,0,0,1,8.052-8.052H363.141a10.538,10.538,0,0,1,10.506,10.507h0A10.539,10.539,0,0,1,363.141,98.44H346.926a16.558,16.558,0,0,0-16.509,16.509h0a16.558,16.558,0,0,0,16.509,16.51h68.352a10.537,10.537,0,0,1,10.508,10.507h0a10.538,10.538,0,0,1-10.508,10.507h-10.09A15.269,15.269,0,0,0,389.965,167.7h0a15.269,15.269,0,0,0,15.224,15.224H418.92a39.219,39.219,0,0,1,39.1,39.105h0a39.221,39.221,0,0,1-39.1,39.1h-4.476a37.721,37.721,0,0,0-37.612,37.611h0a37.723,37.723,0,0,0,37.612,37.613h9.693a38.035,38.035,0,0,1,37.923,37.922h0A38.034,38.034,0,0,1,424.138,412.2ZM390.026,98.44a10.508,10.508,0,1,0-10.508-10.507A10.507,10.507,0,0,0,390.026,98.44Zm-307.151,36.5a8.052,8.052,0,1,0-8.052-8.052A8.052,8.052,0,0,0,82.875,134.939Z" transform="translate(-37.94 -50.364)"/>
  <path class="cls-2" d="M274.36,334.514q2.134-8.382,3.523-16.385,1.418-8.127,2.084-15.791c1.678-19.113,0-36.162-4.337-51.242a112.668,112.668,0,0,0-22.57-42.174,128.19,128.19,0,0,0-33.04-27.384,168.19,168.19,0,0,0-43.549-17.587c-5.185-1.322-10.453-2.429-15.772-3.329-5.383-.909-10.8-1.6-16.2-2.074v0a2.233,2.233,0,0,0-2.421,2.021l-.007.156c-.153,2.113-3.294,47.416,11.2,91.44,14.66,44.532,47.287,87.759,119.034,84.077a2.221,2.221,0,0,0,2.055-1.723ZM144.3,162.1a235.493,235.493,0,0,1,25.595,18.7c-5.98,0-19.559.1-25.795.928-.273-9.788.039-16.863.2-19.633Zm-.133,21.778.027,0c7.213-1.008,25.539-.939,28.27-.923,6.632,5.6,14.027,12.322,21.756,20.179l-48.283,3.9c-1.012-8.551-1.531-16.425-1.769-23.157Zm2.027,25.276,49.962-4.04a322.781,322.781,0,0,1,21.931,25.148c-9.977,1.2-57.7,7-66.055,9.5a239.642,239.642,0,0,1-5.838-30.612Zm6.389,32.669c8.418-2.574,61.078-8.889,67.033-9.6,5.847,7.573,11.627,15.77,17.169,24.594L161.66,266.836a1.186,1.186,0,0,0-.268.071c-2.246-5.089-4.211-10.269-5.923-15.47q-1.582-4.8-2.887-9.612Zm9.71,27.084,75.733-10.1c4.293,6.956,8.434,14.293,12.343,22.016-12.276,1.85-74.892,9.728-75.081,9.752a1.041,1.041,0,0,0-.467.178,133.253,133.253,0,0,1-12.528-21.848Zm13.883,23.707c6.634-.836,65.238-8.227,75.2-9.785,3.332,6.709,6.486,13.705,9.41,20.988-15.249,4.422-64.545,8.25-64.69,8.262a1.057,1.057,0,0,0-.73.369,103.824,103.824,0,0,1-19.186-19.834Zm21.362,21.492c7.906-.641,50.128-4.2,64.036-8.3q2.779,7.072,5.253,14.506c-5.758,1.162-31.51,6.113-47.363,4.928a1.069,1.069,0,0,0-1.044.6,96.311,96.311,0,0,1-20.882-11.734Zm25.328,13.432c16.391.353,39.714-4.187,44.629-5.187q1.846,5.7,3.491,11.621c-18.622.818-34.533-1.6-48.12-6.434Zm49.759,4.361q-1.535-5.42-3.244-10.664c3.212-5.582,6.65-15.629,8.462-21.285q-.079,1.084-.176,2.176-.665,7.57-2.058,15.6-1.2,6.888-2.984,14.178Zm5.54-37.477a1.068,1.068,0,0,0-1.08.764c-.014.047-4.391,14.918-8.627,23.264q-2.4-7.116-5.086-13.906a208.823,208.823,0,0,0,13.6-36.029,143.235,143.235,0,0,1,1.2,25.908Zm-1.775-29.617a1.068,1.068,0,0,0-.87.792A204.731,204.731,0,0,1,262.3,301.873q-4.269-10.5-9.121-20.2c1.89-3.436,12.952-23.943,16.842-39.956q1.9,4.852,3.389,10.015a121.334,121.334,0,0,1,2.979,13.078Zm-7.469-25.8a1.063,1.063,0,0,0-.646.761c-3.173,14.552-13.105,33.711-16.265,39.578-3.861-7.588-7.944-14.806-12.176-21.656,13.012-18.326,17.343-34.374,18.278-38.393a109.621,109.621,0,0,1,10.808,19.71Zm-12.258-21.762a1.067,1.067,0,0,0-.434.666c-.01.051-3.294,17.343-17.618,37.814-5.559-8.849-11.354-17.074-17.219-24.676,5.937-8.784,14.268-31.81,15.393-34.961A118.566,118.566,0,0,1,251.3,210.421q2.8,3.3,5.36,6.826ZM235.085,194.7a1.052,1.052,0,0,0-.18.322c-.027.074-8.708,24.639-14.9,34.251a325.717,325.717,0,0,0-22.2-25.5c5.247-11.681,7.539-24.953,7.888-27.1q6.768,3.123,13.156,6.861A134.777,134.777,0,0,1,235.085,194.7Zm-31.37-18.918a1.045,1.045,0,0,0-.08.272,119.634,119.634,0,0,1-7.429,26.074c-7.861-8.024-15.391-14.888-22.146-20.6a77.246,77.246,0,0,0,2.987-15.03,173.919,173.919,0,0,1,26.667,9.288Zm-28.749-9.82a1.008,1.008,0,0,0-.027.166,76.209,76.209,0,0,1-2.645,13.909,250.569,250.569,0,0,0-25.614-18.962q6.825.68,13.633,1.827Q167.658,164.141,174.966,165.959Z" transform="translate(-37.94 -50.364)"/>
  <g>
    <path class="cls-3" d="M248.537,402.131a228.69,228.69,0,0,0-.142-36.981c-4-44.918-22.354-76.967-48.356-98.427-25.97-21.434-59.558-32.271-94.095-34.8a227.506,227.506,0,0,0-36.714.331,1.221,1.221,0,0,0-1.108,1.32c0,.035.008.071.015.1.357,3.463,21.653,206.176,179.461,169.6A1.216,1.216,0,0,0,248.537,402.131Z" transform="translate(-37.94 -50.364)"/>
    <path class="cls-4" d="M75.843,238.383a1.132,1.132,0,0,0-.8,2.116c.106.039,12.44,4.619,30.867,15.017-6.312,1.125-20.712,3.8-26.966,5.838a1.133,1.133,0,0,0,.7,2.154c7.345-2.4,26.494-5.736,29.349-6.228,7.968,4.611,16.942,10.255,26.476,17.02l-49.72,13.078a1.131,1.131,0,0,0,.577,2.188l51.534-13.555a342.975,342.975,0,0,1,27.585,22.176c-10.228,3.117-59.259,18.149-67.289,22.268a1.129,1.129,0,0,0,1.028,2.01c8.28-4.248,62.135-20.66,68.223-22.512,7.517,6.82,15.078,14.3,22.509,22.486l-76.585,24.447a1.134,1.134,0,1,0,.69,2.16l77.562-24.76c5.779,6.465,11.47,13.355,16.988,20.691-12.475,4.219-76.395,24.1-76.587,24.164a1.131,1.131,0,0,0,.672,2.16c.2-.062,66.634-20.732,77.338-24.42q7.093,9.58,13.733,20.164c-15.1,7.459-65.864,20.637-66.015,20.674a1.134,1.134,0,0,0,.567,2.2c.151-.039,51.461-13.356,66.645-20.936q4.219,6.867,8.186,14.168c-5.795,2.287-31.766,12.254-48.542,13.967a1.134,1.134,0,0,0,.226,2.256c17.3-1.767,44.075-12.113,49.393-14.219q3.069,5.76,5.955,11.789a1.134,1.134,0,1,0,2.047-.977q-3.018-6.313-6.241-12.328c3.34-9.272,5.439-28.33,5.446-28.387a1.132,1.132,0,1,0-2.25-.25c-.006.051-1.809,16.4-4.678,25.9q-3.829-6.984-7.9-13.574a219.36,219.36,0,0,0,7.689-42.771,1.131,1.131,0,0,0-2.256-.162,217.139,217.139,0,0,1-7.05,40.34q-6.412-10.169-13.286-19.4c1.375-4.062,9.555-28.9,10.228-46.477a1.135,1.135,0,0,0-2.268-.092c-.6,15.787-7.408,37.643-9.613,44.359-5.445-7.205-11.054-13.981-16.747-20.348,11.755-24.91,11.977-44.49,11.978-44.547a1.133,1.133,0,1,0-2.266-.045c0,.055-.212,18.723-11.356,42.768-7.452-8.207-15.036-15.713-22.576-22.56,4.9-11.027,9.618-39.693,9.632-39.779a1.13,1.13,0,1,0-2.232-.363c-.013.082-4.5,27.352-9.178,38.541A345.587,345.587,0,0,0,139.334,274.3c3.6-14.358,3.185-30.041,3.184-30.087a1.132,1.132,0,0,0-2.264.053,126.906,126.906,0,0,1-2.9,28.612c-9.7-6.916-18.845-12.682-26.962-17.393a82.118,82.118,0,0,0,.3-16.45,1.131,1.131,0,1,0-2.253.209,80.872,80.872,0,0,1-.173,15.018C88.966,243.251,75.952,238.424,75.843,238.383Z" transform="translate(-37.94 -50.364)"/>
  </g>
  <path class="cls-3" d="M272.106,384.434q-.617-8.446-.581-16.406.032-8.083.707-15.59c1.669-18.725,6.217-34.877,13-48.678a110.385,110.385,0,0,1,29.023-36.793,125.575,125.575,0,0,1,36.576-20.728,164.767,164.767,0,0,1,45.026-9.473c5.228-.382,10.5-.544,15.785-.5,5.349.049,10.687.314,15.984.787v0a2.187,2.187,0,0,1,1.987,2.365l-.021.153c-.215,2.063-4.978,46.3-26.529,86.264-21.8,40.428-60.7,76.508-129.267,60.617a2.175,2.175,0,0,1-1.685-2.016ZM427.2,240.519a230.73,230.73,0,0,0-27.9,13.638c5.767,1.028,18.849,3.455,24.72,5.332,1.945-9.394,2.861-16.27,3.183-18.97Zm-3.618,21.028-.024-.01c-6.784-2.212-24.471-5.3-27.106-5.752-7.359,4.26-15.648,9.473-24.454,15.721l45.9,12.07c2.446-8.074,4.3-15.578,5.688-22.029Zm-6.3,24.029-47.49-12.492a316.464,316.464,0,0,0-25.479,20.482c9.418,2.871,54.445,16.674,62.073,20.529a234.718,234.718,0,0,0,10.9-28.52ZM405.5,315.984c-7.676-3.93-57.38-19.078-63-20.787-6.942,6.3-13.928,13.211-20.789,20.768l70.733,22.58a1.061,1.061,0,0,1,.245.115c3.042-4.522,5.828-9.182,8.374-13.9q2.353-4.362,4.437-8.773Zm-14.023,24.451-71.307-22.764c-5.337,5.969-10.593,12.334-15.689,19.109,11.522,3.9,70.558,22.264,70.735,22.32a1.043,1.043,0,0,1,.421.25,130.373,130.373,0,0,0,15.84-18.916ZM374.01,360.912c-6.255-1.945-61.507-19.154-70.845-22.369q-6.551,8.845-12.685,18.623c13.946,6.887,60.833,19.059,60.972,19.094a1.038,1.038,0,0,1,.64.484,101.689,101.689,0,0,0,21.918-15.832Zm-24.3,17.057c-7.516-1.979-47.625-12.674-60.334-19.018q-3.9,6.343-7.561,13.086c5.352,2.111,29.339,11.316,44.832,12.9a1.046,1.046,0,0,1,.9.756,94.411,94.411,0,0,0,22.158-7.725Zm-26.738,8.6c-15.869-2.478-37.583-10.869-42.151-12.68q-2.763,5.186-5.366,10.607c17.819,3.994,33.582,4.393,47.518,2.072Zm-48.741-4.353q2.411-4.963,4.963-9.727c-2.138-5.936-3.726-16.219-4.5-21.984q-.108,1.06-.2,2.129-.661,7.415-.7,15.4-.026,6.85.44,14.186Zm1.1-37.1a1.047,1.047,0,0,1,.909.922c0,.049,1.669,15.144,4.319,23.922q3.538-6.451,7.3-12.537a204.542,204.542,0,0,1-6.916-37.088,140.293,140.293,0,0,0-5.61,24.781Zm6.806-28.26a1.046,1.046,0,0,1,.7.914,200.554,200.554,0,0,0,6.512,37.258q5.922-9.393,12.271-17.916c-1.231-3.639-8.373-25.318-9.371-41.434q-2.665,4.354-4.99,9.078a118.558,118.558,0,0,0-5.124,12.1Zm11.642-23.6a1.041,1.041,0,0,1,.491.846c.558,14.58,6.842,34.764,8.88,40.969,5.029-6.654,10.209-12.914,15.467-18.793-9.4-19.914-10.813-36.135-11.024-40.172a107.263,107.263,0,0,0-13.813,17.15Zm15.564-18.881a1.039,1.039,0,0,1,.3.717c0,.049.194,17.293,10.488,39.5,6.884-7.58,13.889-14.516,20.853-20.838-4.217-9.494-8.29-33.135-8.834-36.368a116.323,116.323,0,0,0-16.466,11.325q-3.27,2.7-6.345,5.662Zm24.689-18.037a1.04,1.04,0,0,1,.12.342c.013.076,4.159,25.262,8.475,35.6a318.876,318.876,0,0,1,25.8-20.773c-3.052-12.17-2.979-25.365-2.946-27.491q-7.066,1.849-13.87,4.355a132.2,132.2,0,0,0-17.575,7.971Zm33.511-12.851a1,1,0,0,1,.03.276,117.209,117.209,0,0,0,2.68,26.424c8.962-6.386,17.405-11.711,24.9-16.061a75.634,75.634,0,0,1-.3-15.011,170.432,170.432,0,0,0-27.317,4.371Zm29.417-4.526a1.14,1.14,0,0,1,0,.164A74.625,74.625,0,0,0,397.118,253a245.267,245.267,0,0,1,27.965-13.883c-4.466-.345-8.961-.541-13.462-.582Q404.32,238.467,396.961,238.962Z" transform="translate(-37.94 -50.364)"/>
  <g>
    <path class="cls-3" d="M309.207,257.427c.853-6.678,3.533-17.486,11.525-30.548,13.564-22.168,20.064-46.587,8.116-54.207-11.509-7.341-30.723,24.1-31.3,82.5l11.619,2.244Z" transform="translate(-37.94 -50.364)"/>
    <path class="cls-4" d="M326.042,179.361a.882.882,0,0,0-1.367-1.115,63,63,0,0,0-4.463,6.425l.49-5.04a.587.587,0,1,0-1.169-.113l-.727,7.491c-1.166,2-2.431,4.319-3.726,6.964l-.437-6.081a.588.588,0,1,0-1.173.083l.585,8.15c-1.3,2.787-2.606,5.88-3.855,9.275l-.576-5.263a.587.587,0,0,0-1.168.125l.841,7.685c-1.241,3.6-2.406,7.51-3.419,11.714l-1.1-4.958a.586.586,0,1,0-1.146.252l1.639,7.367c-.875,4-1.61,8.247-2.149,12.734l-1.286-2.722a.588.588,0,1,0-1.063.5l2.1,4.447c-.357,3.444-.6,7.022-.692,10.733l-1.392-2.668a.588.588,0,1,0-1.042.543l2.392,4.591q-.022,2.748.063,5.588l1.778.343q-.1-2.846-.078-5.6c1-1.06,3.447-3.557,4.974-4.2a.589.589,0,0,0-.451-1.087,18.335,18.335,0,0,0-4.5,3.574q.038-2.153.141-4.252a24.9,24.9,0,0,1,6.366-4.172.589.589,0,1,0-.422-1.1,23.958,23.958,0,0,0-5.861,3.667c.171-2.862.431-5.635.759-8.322,1.871-1,7.852-4.093,10.943-4.693a.588.588,0,0,0-.223-1.155c-2.9.565-8.108,3.158-10.539,4.425q.57-4.285,1.365-8.264c1.826-1.029,7.875-4.291,13.113-5.412a.588.588,0,0,0-.247-1.15,52.756,52.756,0,0,0-12.56,5.051q.41-1.953.865-3.824a57,57,0,0,1,15.607-6.9.588.588,0,1,0-.291-1.139,58.16,58.16,0,0,0-14.908,6.4,125.943,125.943,0,0,1,3.854-12.373c2.5-.845,12.261-4.066,17.472-4.695a.588.588,0,1,0-.141-1.168c-4.824.583-13.349,3.3-16.8,4.442,1.069-2.787,2.172-5.353,3.265-7.7,2.477-.574,11.625-2.685,13.876-3.066a.587.587,0,1,0-.193-1.158c-2.062.349-9.735,2.106-13.039,2.87,1.464-3.038,2.9-5.667,4.191-7.866,2.37-.393,8.083-1.332,9.521-1.468a.588.588,0,0,0-.112-1.171c-1.279.122-5.9.87-8.614,1.318A63.957,63.957,0,0,1,326.042,179.361Z" transform="translate(-37.94 -50.364)"/>
  </g>
  <g>
    <path class="cls-2" d="M286.57,347.59c4.947-11.873,16.265-32.279,41.251-55.5,39.525-36.73,66.2-79.958,46.617-98.035-19.222-17.74-76.98,36.643-110.675,149.107A123.055,123.055,0,0,0,286.57,347.59Z" transform="translate(-37.94 -50.364)"/>
    <path class="cls-1" d="M275.772,340.254a28.372,28.372,0,0,1,9.189-.672.588.588,0,1,0,.093-1.172,30.671,30.671,0,0,0-8.846.535q.939-2.8,1.893-5.535c1.989-.469,8.409-1.963,10.857-2.342a.589.589,0,0,0-.18-1.164c-2.247.348-7.7,1.6-10.22,2.19q1.8-5.1,3.649-9.943a136.727,136.727,0,0,1,14.8-1.986.589.589,0,0,0-.088-1.174,138.962,138.962,0,0,0-14.227,1.869q1.875-4.878,3.794-9.5a194.155,194.155,0,0,1,21.139-2.844.589.589,0,0,0-.088-1.174,196.4,196.4,0,0,0-20.5,2.713q2.536-6.061,5.126-11.7c2.749-.707,14.179-3.439,23.4-2.5a.588.588,0,0,0,.122-1.17c-8.589-.875-19.018,1.361-22.9,2.3q3.2-6.9,6.455-13.178c3.825-.59,19.285-2.662,27.475.867a.587.587,0,1,0,.462-1.08c-7.944-3.426-22.294-1.789-27.261-1.078q3.466-6.633,6.952-12.6a122.392,122.392,0,0,1,27.049,3.549.588.588,0,0,0,.3-1.137,123.544,123.544,0,0,0-26.672-3.574q2.07-3.513,4.135-6.8c2.757-.019,14.552.166,30.97,4.215a.588.588,0,0,0,.282-1.141,136.662,136.662,0,0,0-30.5-4.248q4.914-7.746,9.729-14.28c3.575.394,21.71,2.536,31.809,6.308a.587.587,0,0,0,.41-1.1c-9.7-3.622-26.6-5.749-31.408-6.3q2.805-3.778,5.539-7.169a173.038,173.038,0,0,1,30.6,6.6.587.587,0,1,0,.366-1.116,174,174,0,0,0-30.088-6.558c4.273-5.236,8.383-9.774,12.229-13.679,2.973.066,16.429.556,27.2,4.086a.587.587,0,1,0,.366-1.116c-9.905-3.246-22.009-3.959-26.431-4.114q2.4-2.388,4.637-4.448a90.944,90.944,0,0,1,22.94.925.588.588,0,0,0,.186-1.162,95.887,95.887,0,0,0-21.692-1.071c12.091-10.879,20.223-14.716,20.289-14.749a.882.882,0,0,0-.776-1.583,67.576,67.576,0,0,0-9.543,5.988c1.312-2.638,3.188-6.292,3.774-6.848a.587.587,0,0,0-.808-.852c-.9.856-3.979,7.077-5.028,9.226-2.388,1.807-5.077,3.979-8.016,6.578L352,201.845a.587.587,0,1,0-1.136-.3l-3.738,14.216c-2.007,1.825-4.118,3.841-6.313,6.053l3.286-14.679a.587.587,0,0,0-1.146-.26l-3.7,16.535c-3.272,3.381-6.715,7.2-10.281,11.5l2.365-14.991a.588.588,0,0,0-1.161-.187l-2.681,16.989q-2.432,3-4.92,6.3l1.85-13.449a.588.588,0,0,0-1.165-.163l-2.142,15.567q-4.588,6.225-9.307,13.529l.8-12.921a.589.589,0,0,0-1.175-.074l-.934,15.036q-1.853,2.941-3.715,6.068l-.077-9.721a.587.587,0,0,0-1.175.009l.094,11.669q-3.442,5.874-6.873,12.385l-.432-10.76a.588.588,0,0,0-1.175.049l.514,12.793q-2.984,5.771-5.929,12.059l-.8-9.473a.588.588,0,0,0-1.173.1l.978,11.527q-2.553,5.546-5.056,11.49l-1.708-8.342a.587.587,0,1,0-1.151.234l2.053,10.029q-1.8,4.342-3.563,8.9l-2.4-6.908a.587.587,0,0,0-1.11.383l2.856,8.228q-1.613,4.227-3.192,8.637l-1.809-4.41a.588.588,0,0,0-1.088.445l2.306,5.627q-1.169,3.319-2.317,6.746l-2.7-3.363a.587.587,0,0,0-.914.736l3.174,3.951q-.932,2.8-1.848,5.68c.585.129,1.163.256,1.733.375Q274.882,342.94,275.772,340.254Z" transform="translate(-37.94 -50.364)"/>
  </g>
  <path class="cls-3" d="M391.848,423.791a1.238,1.238,0,1,1,2.475,0v2.867h2.869a1.238,1.238,0,0,1,0,2.477h-2.869V432a1.238,1.238,0,1,1-2.475,0v-2.867H388.98a1.238,1.238,0,1,1,0-2.477h2.867Z" transform="translate(-37.94 -50.364)"/>
  <g>
    <path class="cls-3" d="M300.057,86.036a1.238,1.238,0,0,1,2.477,0V88.9H305.4a1.238,1.238,0,1,1,0,2.477h-2.867v2.867a1.238,1.238,0,1,1-2.477,0V91.381h-2.868a1.238,1.238,0,0,1,0-2.477h2.868Z" transform="translate(-37.94 -50.364)"/>
    <path class="cls-3" d="M112.534,180.107a1.238,1.238,0,0,1,2.476,0v2.868h2.868a1.239,1.239,0,0,1,0,2.477h-2.868v2.867a1.238,1.238,0,1,1-2.476,0v-2.867h-2.867a1.239,1.239,0,0,1,0-2.477h2.867Z" transform="translate(-37.94 -50.364)"/>
    <path class="cls-3" d="M68.606,364.106a1.238,1.238,0,1,1,2.477,0v2.869h2.868a1.237,1.237,0,1,1,0,2.475H71.083v2.869a1.238,1.238,0,0,1-2.477,0v-2.869H65.739a1.237,1.237,0,1,1,0-2.475h2.867Z" transform="translate(-37.94 -50.364)"/>
    <path class="cls-3" d="M420.856,210.773a1.238,1.238,0,1,1,2.476,0v2.868H426.2a1.238,1.238,0,1,1,0,2.477h-2.869v2.868a1.238,1.238,0,1,1-2.476,0v-2.868h-2.867a1.238,1.238,0,1,1,0-2.477h2.867Z" transform="translate(-37.94 -50.364)"/>
    <path class="cls-3" d="M395.981,54.135a1.239,1.239,0,0,1,2.478,0V57h2.867a1.238,1.238,0,1,1,0,2.477h-2.867v2.868a1.239,1.239,0,0,1-2.478,0V59.481h-2.867a1.238,1.238,0,0,1,0-2.477h2.867Z" transform="translate(-37.94 -50.364)"/>
    <path class="cls-3" d="M75.237,64.082a1.238,1.238,0,0,1,2.477,0V66.95h2.868a1.238,1.238,0,1,1,0,2.476H77.714v2.868a1.238,1.238,0,0,1-2.477,0V69.426H72.369a1.238,1.238,0,0,1,0-2.476h2.868Z" transform="translate(-37.94 -50.364)"/>
    <path class="cls-3" d="M56.175,425.449a1.238,1.238,0,1,1,2.477,0v2.867h2.867a1.238,1.238,0,1,1,0,2.477H58.651v2.867a1.238,1.238,0,0,1-2.477,0v-2.867H53.307a1.238,1.238,0,0,1,0-2.477h2.868Z" transform="translate(-37.94 -50.364)"/>
    <circle class="cls-5" cx="295.259" cy="94.485" r="2.176"/>
    <circle class="cls-5" cx="304.791" cy="94.485" r="2.176"/>
    <circle class="cls-5" cx="314.323" cy="94.485" r="2.176"/>
    <circle class="cls-5" cx="323.854" cy="94.485" r="2.176"/>
    <circle class="cls-5" cx="333.386" cy="94.485" r="2.176"/>
    <circle class="cls-5" cx="300.647" cy="103.188" r="2.176"/>
    <circle class="cls-5" cx="319.71" cy="103.188" r="2.176"/>
    <circle class="cls-5" cx="329.242" cy="103.188" r="2.176"/>
    <circle class="cls-5" cx="117.893" cy="2.176" r="2.176"/>
    <circle class="cls-5" cx="127.424" cy="2.176" r="2.176"/>
    <circle class="cls-5" cx="136.955" cy="2.176" r="2.176"/>
    <circle class="cls-5" cx="146.487" cy="2.176" r="2.176"/>
    <circle class="cls-5" cx="156.018" cy="2.176" r="2.176"/>
    <circle class="cls-5" cx="123.28" cy="10.879" r="2.176"/>
    <circle class="cls-5" cx="142.343" cy="10.879" r="2.176"/>
    <circle class="cls-5" cx="151.874" cy="10.879" r="2.176"/>
  </g>
  <path class="cls-6" d="M303.187,253.684c-24.363,13.185-87.792,4.157-87.792,4.157s10.239-19.834,2.691-62.27c18.3-29.881,79.869-48.8,79.869-48.8l14.219,8.117s-2.7,17.843-5.049,42.967" transform="translate(-37.94 -50.364)"/>
  <path class="cls-7" d="M152.168,204.766a68.892,68.892,0,0,0,8.025.975c3.537.145,3.588.108,4.378.951s3.131,4.238,3.39,6.237-1.635,5.649-3.509,7.888-5.677,4.565-6.443,9.882l-3.024,2.94-11.575-1.669s.161-1.117.445-3.084-2.411-3.435-2.706-5.909a27.223,27.223,0,0,1,.476-7.414c.406-2.816,1.411-9.787,1.411-9.787S145.31,204.074,152.168,204.766Z" transform="translate(-37.94 -50.364)"/>
  <path class="cls-8" d="M160.256,208.691l2.986-2.768s-1.353-1.444-.906-4.536,3.9-27.071,4.281-29.7-5.723-.8-7.215,5.6-2,13.07-2.627,17.427c0,0-17.384,5.876-18.647,7.518s-1.457,10.111-.918,12.3,5.645,4.749,5.645,4.749Z" transform="translate(-37.94 -50.364)"/>
  <path class="cls-7" d="M161.243,207.776l2-1.853s-1.353-1.444-.906-4.536l.762-5.29c-1.378,9.559-10.209,8.794-10.209,8.794l1.535,3.718Z" transform="translate(-37.94 -50.364)"/>
  <path class="cls-7" d="M152.595,213.356l4.19-2.551-4.724-4.389-2.43-1.258a4.5,4.5,0,0,0-.533,3.8C149.542,210.907,151.693,212.685,152.595,213.356Z" transform="translate(-37.94 -50.364)"/>
  <path class="cls-8" d="M152.168,204.766a68.892,68.892,0,0,0,8.025.975c3.537.145,3.588.108,4.378.951s3.131,4.238,3.39,6.237-1.635,5.649-3.509,7.888-5.677,4.565-6.443,9.882l-3.024,2.94-1.978-.285,1.027-7.127c.258-1.789-2.778-2.956-2.153-7.291s5.283-6.9,5.283-6.9c-7.508-1.082-8.018-4.509-7.8-5.983.2-1.389.915-1.42,1-1.418C150.922,204.657,151.524,204.7,152.168,204.766Z" transform="translate(-37.94 -50.364)"/>
  <path class="cls-9" d="M226.548,236.009A65.9,65.9,0,0,0,213.31,246.2c-10.159,10.385-53.618,61.522-54.634,62.2s-1.693.113-2.145-.676,2.935-76.591,2.935-76.591a1.689,1.689,0,0,0-1.3-1.3s-5.908,2.311-14.312-.944c0,0-.953.272-1.234.752s-14,87.821-14,95.046,5.869,15.125,14,19.416c11.894,6.275,61.482-31.506,72.469-38.607l16.123-46.043C229.615,250.261,226.777,237.069,226.548,236.009Z" transform="translate(-37.94 -50.364)"/>
  <path class="cls-10" d="M226.548,236.009A65.9,65.9,0,0,0,213.31,246.2c-4.257,4.352-14.359,15.857-24.735,27.807-2.078,12.5-8.774,50.375-14.344,54.889-6.658,5.4-25.342,15.551-25.478,15.623,17.635-3.174,56.732-32.82,66.336-39.029l16.123-46.043c-1.6-9.189-4.435-22.38-4.664-23.44ZM153.4,230.615h0s-3.371.755-5.99,7.167-17.741,77.333-17.8,77.6c3.15-24.256,12.771-85.347,13.008-85.747.281-.48,1.234-.752,1.234-.752A24.322,24.322,0,0,0,153.4,230.615Z" transform="translate(-37.94 -50.364)"/>
  <path class="cls-9" d="M304.382,246.869a41.5,41.5,0,0,0-6.249-5.218c-7.577-2.482-20.471-6.7-20.645-6.755-10.424-1.121-22.917-.638-39.205-2.24a23.945,23.945,0,0,0-17.328,7.779c-8.34,8.7-19.314,27.579-27.617,39.4-3.9,5.553-3.56,14.7-.678,23.557v0A193.068,193.068,0,0,1,198.6,331.34c1.992,14.094,2.167,60.482,1.244,77.012-.152,2.744,1.426,3.719,1.2,4.3,0,0,67.337,20.387,97.94-8.828-23.388-59.816-12.809-74.43,1.237-115.564.526-1.541,1.036-3.129,1.518-4.742C304.865,269.625,305.229,253.773,304.382,246.869Z" transform="translate(-37.94 -50.364)"/>
  <path class="cls-10" d="M192.619,280.982c-3.123,5.615-2.65,14.141.04,22.408v0s.575,1.832,1.415,5.072c.631-1.521,1.441-2.822,2.382-2.891,2.326-.172,60.532,7.59,66.807,15.686s14.094,71.336,8.234,82.658c-5.354,10.346-37.378,13.779-42.863,14.3a164.5,164.5,0,0,0,19.693,1.355c17.814-.084,36.679-3.7,49.3-15.744-23.389-59.816-12.81-74.43,1.237-115.564a98.233,98.233,0,0,0,4.909-20.814c.4-3.89.759-7.281.984-10.293q.021-1.178.019-2.285c-5.875-5.258-12.957-8.3-16.563,2.478-6.82,20.38-19.142,39.333-29.135,39.892s-54.091-7.412-61.389-9.9C193.506,285.9,192.616,283.109,192.619,280.982Z" transform="translate(-37.94 -50.364)"/>
  <path class="cls-11" d="M237.579,242.23s-2.2,1.564-4.362,3.225a30.029,30.029,0,0,0-4.035,3.458c-1.175,1.534,7.4,36.392,7.4,36.392l11.56-3.07Z" transform="translate(-37.94 -50.364)"/>
  <polygon class="cls-12" points="201.402 193.315 200.99 241.897 223.497 207.897 217.786 208.282 206.698 212.349 201.402 193.315"/>
  <path class="cls-1" d="M239.118,270.1l-.077,9.113a44.238,44.238,0,0,0,7.208-1.127,27.477,27.477,0,0,0,3.883-2.744l11.3-17.076-5.711.385-8.979,3.291-3.929,2.556A37.53,37.53,0,0,0,239.118,270.1Z" transform="translate(-37.94 -50.364)"/>
  <path class="cls-9" d="M277.72,234.69a27.094,27.094,0,0,1-3.014-.053c-7.169,12.367-16.461,21.529-27.145,32.3-20.363,20.535-25.281,20.385-19.909,50.607,1.24,6.969,8.568,65.121,6.045,101.238,21.558,2.129,48.773.813,65.292-14.957-21.353-54.611-14.393-71.545-2.33-105.381.015-.043.031-.086.048-.127h0l.025-.053a3.387,3.387,0,0,1,.158-.314c9.173-18.213,8.857-53.785,6.435-54.592-2.438-.814-25.841-8.465-25.841-8.465Z" transform="translate(-37.94 -50.364)"/>
  <path class="cls-6" d="M226.315,293.252c-.968,4.221-.885,9.361.124,16.7,16.207,2.963,33.556,7.086,36.823,11.3,6.274,8.1,14.094,71.336,8.234,82.658-4.4,8.508-26.838,12.342-37.725,13.723-.024.383-.049.766-.075,1.143,4.7.465,9.676.766,14.747.787,17.78-.1,37.953-3.723,50.545-15.744-23.388-59.816-12.809-74.43,1.237-115.564,2.248-6.582,2.85-14.027,3.546-20.814.4-3.89.759-7.281.984-10.293.014-.786.019-1.547.019-2.287-5.875-5.256-12.223-.6-12.223-.6s-25.914,42.545-33.476,42.969S239.829,295.565,226.315,293.252Z" transform="translate(-37.94 -50.364)"/>
  <path class="cls-9" d="M303.323,243.359a20.46,20.46,0,0,1,9.206,8.818c10.231,18.887,22.277,75.481,23.916,99.875,1.585,23.568-18.31,25.309-25.382,6.3-5.562-14.951-17.586-56.506-17.586-56.506S278.578,254.614,303.323,243.359Z" transform="translate(-37.94 -50.364)"/>
  <path class="cls-10" d="M335.523,342.772c.426,3.432.74,6.559.922,9.281,1.585,23.568-18.31,25.309-25.382,6.3-5.562-14.951-17.586-56.506-17.586-56.506s-9.35-29.647-.927-47.559c-.062.515-1.732,14.906,3.411,28.738,5.238,14.088,20.545,55.014,22.1,60.287C318.844,345.949,327.285,344.69,335.523,342.772Z" transform="translate(-37.94 -50.364)"/>
  <path class="cls-11" d="M269.224,243c-6.2,8.463-13.526,15.73-21.662,23.935-8.221,8.291-13.924,13.209-17.448,18.117.1-.062,42.958-26.211,45.123-27.293s-1.083-13.364-1.083-13.364Z" transform="translate(-37.94 -50.364)"/>
  <path class="cls-8" d="M270.242,198.429l-.431,9.434s-.059,19.328-.067,22.263c0,1.469,1.433,3.065,3.936,4.432-3.709,5.675-21.686,29.06-28.365,28.332s-6.25-29.343-6.25-29.343a9.934,9.934,0,0,0,2.605-2.045,10.612,10.612,0,0,0,1.9-5.076c1.052-6.1.363-15.258-1.979-18.257C238.377,204.048,270.242,198.429,270.242,198.429Z" transform="translate(-37.94 -50.364)"/>
  <path class="cls-7" d="M270.242,198.429l-.431,9.434s-.059,19.328-.067,22.263c0,1.469,1.433,3.065,3.936,4.432-3.709,5.675-21.686,29.06-28.365,28.332a2.5,2.5,0,0,1-1.082-.395c-.328-.257-.524-.42-.575-.461l-.019-.019c.034-.04,21.614-26.31,19.448-27.122-1.611-.6-13.658-5.1-19.729-7.371.079-.353.149-.719.216-1.1,1.051-6.1.362-15.257-1.979-18.257C238.377,204.048,270.242,198.429,270.242,198.429Z" transform="translate(-37.94 -50.364)"/>
  <path class="cls-13" d="M112.691,363.7c-1.477,1.975-3.043,3.857-4.585,5.691-2.611,3.109-5.277,6.168-7.965,9.129a3.06,3.06,0,0,0-.656,2.35,2.417,2.417,0,0,0,1.077,1.971,121.2,121.2,0,0,0,13.392,5.852c5.8,2.258,11.669,4.392,17.523,6.353a1.163,1.163,0,0,0,1.229-.312l21.047-19.615a2.5,2.5,0,0,0,.707-1.377l3.933-19.3a3.447,3.447,0,0,0-.191-2.068,1.683,1.683,0,0,0-1.179-1.107,94.877,94.877,0,0,1-17.174-5.4c-6.66-2.66-13.27-5.74-19.8-9.033-3.007-1.516-6.027-3.07-9-4.73a1.211,1.211,0,0,0-1.618.4,3.131,3.131,0,0,0-.585,2.3c.4,3.781.874,7.555,1.37,11.307Q111.376,354.924,112.691,363.7Z" transform="translate(-37.94 -50.364)"/>
  <path class="cls-14" d="M154.46,373.738c-7.537-2.09-20.966-6.463-24.217-8.221-.713-.383.286-4.139,4.735-6.174,1.979-.9,5.959-1.641,9.835-2.219,4.558-.68,8.973-1.147,9.824-1.412,2.019-.639,4.087-3.541,1.406-4.643.326.068.652.133.979.2a1.683,1.683,0,0,1,1.179,1.107,3.447,3.447,0,0,1,.191,2.068Z" transform="translate(-37.94 -50.364)"/>
  <path class="cls-13" d="M387.31,363.7c1.476,1.975,3.042,3.857,4.584,5.691,2.612,3.109,5.278,6.168,7.966,9.129a3.056,3.056,0,0,1,.655,2.35,2.414,2.414,0,0,1-1.076,1.971,121.289,121.289,0,0,1-13.392,5.852c-5.8,2.258-11.669,4.392-17.524,6.353a1.163,1.163,0,0,1-1.229-.312l-21.047-19.615a2.5,2.5,0,0,1-.707-1.377l-3.933-19.3a3.454,3.454,0,0,1,.192-2.068,1.682,1.682,0,0,1,1.178-1.107,94.828,94.828,0,0,0,17.174-5.4c6.661-2.66,13.27-5.74,19.8-9.033,3.006-1.516,6.026-3.07,9-4.73a1.211,1.211,0,0,1,1.618.4,3.126,3.126,0,0,1,.585,2.3c-.4,3.781-.874,7.555-1.37,11.307Q388.626,354.924,387.31,363.7Z" transform="translate(-37.94 -50.364)"/>
  <path class="cls-14" d="M345.54,373.738c7.537-2.09,20.967-6.463,24.218-8.221.713-.383-.287-4.139-4.736-6.174-4.3-1.969-18.082-3.135-19.659-3.631-2.018-.639-4.086-3.541-1.405-4.643-.326.068-.653.133-.98.2a1.682,1.682,0,0,0-1.178,1.107,3.454,3.454,0,0,0-.192,2.068Z" transform="translate(-37.94 -50.364)"/>
  <path class="cls-15" d="M372.31,423.193c7.112-5.143,6.106-11.326,4.728-19.824-1.816-11.2-5.149-31.894-5.792-37.031-.85-6.795-5.209-4.879-5.209-4.879-45.954,28.211-186.119,28.211-232.073,0,0,0-4.359-1.916-5.209,4.879-.643,5.137-3.976,25.826-5.793,37.031-1.378,8.5-2.383,14.682,4.729,19.824C165.382,450.449,334.618,450.449,372.31,423.193Z" transform="translate(-37.94 -50.364)"/>
  <g>
    <path class="cls-16" d="M294.6,170.953c.278.047.551.1.82.169l.009,0h0a11.277,11.277,0,1,1-9.483,1.934c-.4,3.316-.021,7.451,4.211,8.014l.106-6.5C290.3,171.94,292.8,170.817,294.6,170.953Z" transform="translate(-37.94 -50.364)"/>
    <path class="cls-16" d="M213.284,168.09c-.28.028-.557.065-.831.111l-.009,0h0a11.276,11.276,0,1,0,9.324,2.6c.169,3.336-.5,7.434-4.764,7.7l.351-6.493C217.5,169.377,215.09,168.081,213.284,168.09Z" transform="translate(-37.94 -50.364)"/>
  </g>
  <path class="cls-8" d="M255.921,113.243h0a38.713,38.713,0,0,1,37.217,39.931L291.9,188.258a38.711,38.711,0,0,1-39.933,37.214h0a38.708,38.708,0,0,1-37.212-39.93l1.235-35.084A38.71,38.71,0,0,1,255.921,113.243Z" transform="translate(-37.94 -50.364)"/>
  <path class="cls-7" d="M285.836,129.27a38.353,38.353,0,0,1,7.3,23.9L291.9,188.258a38.713,38.713,0,0,1-39.933,37.215h0a38.287,38.287,0,0,1-10.21-1.758c34.643,1.82,40.291-26.03,40.472-29.822s.451-9.482.451-14.448a16.542,16.542,0,0,0-1.651-7.793s-10.044-12.526-11.76-14.286-3.161-2.664-4.516-2.664h-1.986c-5.509,6.14-20.967,8.947-24.842,8.947H225.375c-7.508,0-9.98,3.735-9.98,3.735h0l.513-14.556c6.029-6.989,19.4-21.413,28.394-23.048C252.1,128.359,267.333,128.8,285.836,129.27Z" transform="translate(-37.94 -50.364)"/>
  <path class="cls-1" d="M257.053,197.288a9.989,9.989,0,0,1-19.977.083h.018a1.729,1.729,0,0,1,1.718-1.732l16.492-.068a1.728,1.728,0,0,1,1.732,1.716Z" transform="translate(-37.94 -50.364)"/>
  <g>
    <circle class="cls-17" cx="225.469" cy="192.663" r="5.076" transform="translate(-8.753 364.623) rotate(-89.074)"/>
    <circle class="cls-17" cx="269.128" cy="193.37" r="5.076" transform="matrix(0.016, -1, 1, 0.016, 33.47, 408.955)"/>
  </g>
  <path class="cls-18" d="M263.311,182.7a3.468,3.468,0,1,1,6.933.245,1.478,1.478,0,1,0,2.955.1,6.424,6.424,0,1,0-12.841-.451,1.477,1.477,0,0,0,2.953.1Z" transform="translate(-37.94 -50.364)"/>
  <path class="cls-18" d="M223.571,181.305a3.469,3.469,0,1,1,6.934.244,1.478,1.478,0,1,0,2.954.1,6.424,6.424,0,1,0-12.841-.451,1.477,1.477,0,0,0,2.953.1Z" transform="translate(-37.94 -50.364)"/>
  <path class="cls-18" d="M271.923,170.484a1.474,1.474,0,1,0,1.407-2.589c-3.656-1.988-8.417-2.433-12.14-.374a1.475,1.475,0,0,0,1.425,2.583A9.985,9.985,0,0,1,271.923,170.484Z" transform="translate(-37.94 -50.364)"/>
  <path class="cls-18" d="M222.762,168.758c2.993-1.257,6.476-1.58,9.324.27a1.475,1.475,0,0,0,1.6-2.475c-3.516-2.281-8.418-2.238-12.142-.48a1.473,1.473,0,0,0,1.213,2.685Z" transform="translate(-37.94 -50.364)"/>
  <path class="cls-10" d="M215.187,173.306s-.639-4.035-5.586-4.208c-14.568-17.991-11.591-45.626,5.123-59.422s51.554-13.49,57.561-11.251,11.9,12.771,11.9,12.771,5.322-4.421,10.024-1.858,19.663,33.326,19.4,40.878-15.413,22-15.413,22c-4.947-.174-5.866,3.807-5.866,3.807l-.192,5.433c-4.945-.174-5.135-6.45-5-10.179,0,0-7.891-7.508-7.638-14.693l3.13-10.32-4.516-11.288L257.8,125.72l-36.984,7.422L219.333,154.6v0h0S219.06,169.731,215.187,173.306Z" transform="translate(-37.94 -50.364)"/>
  <path class="cls-11" d="M201.056,150.572c-2.917-15.063,2.063-31.316,13.669-40.9,16.713-13.794,51.554-13.49,57.561-11.251s11.9,12.771,11.9,12.771,5.322-4.421,10.024-1.858c3.231,1.76,11.308,16.839,15.958,28.551-2.668,5.019-6.613,9.346-12.215,8.877-5.1-.427-11.465-2.749-17.279-5.388l-2.561-6.4L257.8,125.72l-36.984,7.422-1.452,21.026A94.1,94.1,0,0,1,201.056,150.572Z" transform="translate(-37.94 -50.364)"/>
  <path class="cls-19" d="M242.83,244.534l2.484,18.355-1.792.915s-8.568-15.5-8.726-15.881a.984.984,0,0,1,.2-1.062c.27-.339,3.318-3.432,3.318-3.432Z" transform="translate(-37.94 -50.364)"/>
  <path class="cls-1" d="M242.339,230.519a4.773,4.773,0,0,0-1.678-.389,17.236,17.236,0,0,0-2.754,1.67c-.406.27-3.566,10.881-3.476,11.423a.811.811,0,0,0,.9.633c.315,0,7.5.678,7.5.678l-1.749-12.441A3.758,3.758,0,0,0,242.339,230.519Z" transform="translate(-37.94 -50.364)"/>
  <path class="cls-19" d="M260.894,246.806l-18.077,17.688s29.373-9.786,29.914-10.1.633-.5.678-1.265-1.715-7.179-1.715-7.179Z" transform="translate(-37.94 -50.364)"/>
  <path class="cls-1" d="M270.163,231.549a7.593,7.593,0,0,1,2.9-1.011c1.174,0,4.423,4.355,4.423,4.355s-.019,10.6-.742,12.95c0,0-.135.361-.767.361s-15.078-1.4-15.078-1.4,11.128-9.6,11.648-12.934A7.16,7.16,0,0,1,270.163,231.549Z" transform="translate(-37.94 -50.364)"/>
  <path class="cls-1" d="M260.369,296.857l-4.146-2.926s3.992-4.172,5.063-5.006,2.594-1.588,6.257-1.834S292.6,286.34,311.46,297.4a51.131,51.131,0,0,1,5.135,3.984,2.16,2.16,0,0,0,1.2-.117c.8-.246,3-.57,3.748-1.783a14.578,14.578,0,0,0,.658-2c3.553-12.02,9.766-25.781,23.566-29.748a5.647,5.647,0,0,1,1.961.191,10.132,10.132,0,0,1,2.426,1.844L338.1,302.557s-10.012,9.818-11.35,11.547-10.935,5.7-19.657,3.059S260.369,296.857,260.369,296.857Z" transform="translate(-37.94 -50.364)"/>
  <path class="cls-20" d="M253.88,293.363a3.228,3.228,0,0,0-1.467,2.832c.119,1.883,5.293,45.229,5.652,47.279s.94,3.154,2.919,3.092,35.507-.262,60.679,7.4a5.279,5.279,0,0,0,2.939-.045c1.3-.516,4.971-2.988,5.485-3.812s8.182-17.543,14.44-20.135a3.745,3.745,0,0,0,1.826-2.908c.145-2.016.988-13.9,1.66-23.371s2.22-28.395,4.895-34.684a1.107,1.107,0,0,0-.717-1.316c-.943-.27-20.76,7.267-27.668,33.877,0,0-4.9,3.4-10.31,2.607C314.215,304.178,285.477,286.85,253.88,293.363Z" transform="translate(-37.94 -50.364)"/>
  <path class="cls-21" d="M257.267,337.272c.424,3.422.722,5.764.8,6.2.361,2.051.94,3.154,2.919,3.092s35.507-.262,60.679,7.4a5.279,5.279,0,0,0,2.939-.045c1.3-.516,4.971-2.988,5.485-3.812s8.182-17.543,14.44-20.135a3.745,3.745,0,0,0,1.826-2.908l.273-3.842c-11.425,3.275-15.285-.832-15.99-4.67-.681-3.705-1.982-17.709-2.769-26.555a60.454,60.454,0,0,0-3.343,9.572s-4.9,3.4-10.311,2.607a71.027,71.027,0,0,0-6.5-3.314c2.542,7.232,4.7,15.547,4.415,22.43-.656,15.959-3.838,20.2-10.5,20.658s-25.172-1.582-34.654-2.371A16.769,16.769,0,0,1,257.267,337.272Z" transform="translate(-37.94 -50.364)"/>
  <path class="cls-20" d="M318.9,353.164q1.4.387,2.765.8a5.279,5.279,0,0,0,2.939-.045,24.952,24.952,0,0,0,4.986-3.275c-.751-10.008-3.241-43.269-3.339-45.512a4.233,4.233,0,0,0-1.726-3.562s-4.9,3.4-10.31,2.607a3.285,3.285,0,0,1,.717,1.7c.038.889,3.967,47.291,3.967,47.291Z" transform="translate(-37.94 -50.364)"/>
  <path class="cls-8" d="M327.819,362.758a8,8,0,0,1-5.756-.914c-2.613-1.705-3.066-3.863-3.342-6.414s-.412-4.182-.412-4.182-2.693-5.557-3.362-6.109-4.769-3.428-5.51-4.393a1.9,1.9,0,0,1,1.589-3.125,11.616,11.616,0,0,1-2.6-1.857,4.011,4.011,0,0,1-.474-3.322c.353-.684,3.608-.2,3.608-.2s-2.407-1.74-2.792-2.728a4.128,4.128,0,0,1,.067-3.084c.391-.529,6.2,1.1,11.42,2.432a12.953,12.953,0,0,1,4.617,2c2.068,1.514,3.367,2.467,3.367,2.467a46.9,46.9,0,0,0-4.473-6.141c-1.566-1.477-6.015-5.133-6.745-6.248a5.222,5.222,0,0,1-.57-3.383c.137-.5.637-1.119,2.1-.406s5.719,3.594,9.552,5.941,4.059,3.428,5.57,6.371,3.275,8.785,3.978,11.014-1.429,8-2.945,12.244S331.5,362.258,327.819,362.758Z" transform="translate(-37.94 -50.364)"/>
  <path class="cls-7" d="M327.819,362.758a8,8,0,0,1-5.756-.914c-2.613-1.705-3.066-3.863-3.342-6.414s-.412-4.182-.412-4.182-2.693-5.557-3.362-6.109-4.769-3.428-5.51-4.393a2.247,2.247,0,0,1-.3-1.984,25.892,25.892,0,0,0,4.465,2.609c5.139,2.57,8.039,5.637,8.371,10.029.3,3.988,5.313,9.272,11.816,3.889-1.332,3.566-3.006,7.068-5.966,7.469Zm-17.256-25.113c3.409.594,12.648,4.059,12.648,4.059a18.8,18.8,0,0,0-4.31-2.734c-2.481-1.274-8.234-3.033-11.036-4.57a3.187,3.187,0,0,0,.559,1.365,11.616,11.616,0,0,0,2.6,1.857,2.7,2.7,0,0,0-.463.023Zm-2.029-5.5a12.422,12.422,0,0,1,3.025.1s-2.407-1.74-2.792-2.728a4.694,4.694,0,0,1-.255-1.812c6.329,3.531,14.936,5.338,16.108,7.289,1.243,2.072,1.823,2.406,1.243,2.322s-11.687-4.973-15.416-5.055c-.744-.018-1.378-.065-1.914-.113Zm15.756-1.676c1.823,1.315,3.232,2.367,3.232,2.367a.782.782,0,0,0,.077.022l-2.727-2c-.191-.139-.385-.269-.582-.391Zm3.658,2.4a1.474,1.474,0,0,0,.9-.527c.663-.746-.829-3.731-4.641-7.377a46.42,46.42,0,0,1-6.522-8.113.975.975,0,0,0-1.233.705,5.222,5.222,0,0,0,.57,3.383c.731,1.115,5.179,4.772,6.745,6.248A40.929,40.929,0,0,1,327.948,332.865Z" transform="translate(-37.94 -50.364)"/>
  <path class="cls-10" d="M210.727,150.328l4.063,12.529s39.959,2.032,49.668-20.092c0,0,5.192,21,25.511,19.19s-3.025-37.657-6.186-39.237-32.287-5.282-36.483-4.109-23.117,3.439-24.924,6.825a16.343,16.343,0,0,0-2.032,8.579C220.344,136.72,210.727,150.328,210.727,150.328Z" transform="translate(-37.94 -50.364)"/>
  <path class="cls-11" d="M210.727,150.328l.9,2.786c17.038,3.1,40.924,2.495,52.722-20.445,0,0,20.792,13.024,33.6,14.1-2.269-11.565-10.838-25.635-12.727-26.579-3.16-1.58-34.634-7.269-38.83-6.1s-27.543,3.838-29.35,7.224a16.347,16.347,0,0,0-2.032,8.58C215.016,132.606,210.727,150.328,210.727,150.328Z" transform="translate(-37.94 -50.364)"/>
  <path class="cls-22" d="M212.973,140.675a60.13,60.13,0,0,1-12.626-1.764q-.086,1.248-.1,2.5a63.8,63.8,0,0,0,11.944,2.709q1.252.161,2.559.279.942.083,1.912.143,1.639.1,3.359.12,1.679.018,3.431-.047a73.863,73.863,0,0,0,13.63-1.833c8.928-2.044,15.086-7.4,19.33-13.922q.945-1.45,1.766-2.969a52.248,52.248,0,0,0,3.048-6.781c.444-1.2.845-2.41,1.208-3.611.141-.462.273-.924.4-1.383a84.648,84.648,0,0,0,2.788-16.7,103.642,103.642,0,0,0-17.19.521,80.844,80.844,0,0,1-.338,15.832c-.007.057-.015.112-.021.169-.206,1.558-.475,3.128-.816,4.686a38.122,38.122,0,0,1-3.555,9.928q-.448.828-.948,1.62c-2.75,4.357-7.637,7.166-13.372,8.782a48.1,48.1,0,0,1-9.075,1.571q-1.34.109-2.691.157l-.514.017C215.719,140.733,214.339,140.726,212.973,140.675Z" transform="translate(-37.94 -50.364)"/>
  <path class="cls-1" d="M159.135,238.646a.808.808,0,0,0,.686-.851,29.262,29.262,0,0,0-.355-6.661,1.689,1.689,0,0,0-1.3-1.3s-5.908,2.311-14.312-.944c0,0-.953.272-1.234.752a25.3,25.3,0,0,0-1.711,6.226.958.958,0,0,0,.5.96A25.681,25.681,0,0,0,159.135,238.646Z" transform="translate(-37.94 -50.364)"/>
  <path class="cls-23" d="M150.49,230.509a25.437,25.437,0,0,1-6.636-1.624s-.953.272-1.234.752a25.3,25.3,0,0,0-1.711,6.226.958.958,0,0,0,.5.96,24.038,24.038,0,0,0,5.642,2C147.88,233.669,149.334,231.456,150.49,230.509Z" transform="translate(-37.94 -50.364)"/>
  <path class="cls-24" d="M263.912,318.791c-1.355,0-1.59-1.467-1.59-1.467l-1.467-14.115a1.314,1.314,0,0,1,.825-1.391c.959-.338,25.155-1.844,45.7,10.281a1.573,1.573,0,0,1,.809,1.346c.059,1,.085,5.785.085,5.955v4.262a.592.592,0,0,1-.55.606C307.411,324.324,283.453,318.1,263.912,318.791Z" transform="translate(-37.94 -50.364)"/>
  <g>
    <path class="cls-25" d="M165.816,398.422l-9.588,9.234-.476-.109-4.664-12.5-3.774,16.476-1.432-.327,4.249-18.542,1.7.389,4.623,12.433,9.5-9.2,1.748.4-4.249,18.542-1.4-.321Z" transform="translate(-37.94 -50.364)"/>
    <path class="cls-25" d="M180.348,418.032l2.813-18.812,1.425.213-2.812,18.812Z" transform="translate(-37.94 -50.364)"/>
    <path class="cls-25" d="M211.736,406.252A4.7,4.7,0,0,0,209.562,404a10.763,10.763,0,0,0-5.847-.8,5.136,5.136,0,0,0-2.333,1.006,3.021,3.021,0,0,0-1.236,2.229,2.393,2.393,0,0,0,.206,1.275,3.1,3.1,0,0,0,.688.952,4.84,4.84,0,0,0,1.238.759,13.013,13.013,0,0,0,1.5.593q.677.215,1.819.541a21.406,21.406,0,0,1,4.714,1.786,4.294,4.294,0,0,1,2.207,4.357,4.678,4.678,0,0,1-.965,2.542,4.576,4.576,0,0,1-2.038,1.472,10.242,10.242,0,0,1-2.442.572,12.79,12.79,0,0,1-2.551,0,10.455,10.455,0,0,1-4.472-1.476,6.751,6.751,0,0,1-2.9-3.373l1.36-.525a5.607,5.607,0,0,0,2.45,2.784,8.655,8.655,0,0,0,3.687,1.265,11.483,11.483,0,0,0,1.962.022,8.91,8.91,0,0,0,1.975-.385,3.583,3.583,0,0,0,1.687-1.1,3.711,3.711,0,0,0,.688-3.223,2.326,2.326,0,0,0-.625-1.028,7.406,7.406,0,0,0-.91-.769,6.129,6.129,0,0,0-1.29-.641q-.842-.327-1.373-.5t-1.539-.46q-1.115-.325-1.711-.518t-1.542-.569a6.328,6.328,0,0,1-1.443-.752,8.838,8.838,0,0,1-1.019-.915,2.871,2.871,0,0,1-.713-1.241,4.238,4.238,0,0,1-.113-1.54,4.5,4.5,0,0,1,.873-2.44,4.415,4.415,0,0,1,1.94-1.467,10.109,10.109,0,0,1,2.392-.619,11.175,11.175,0,0,1,2.487-.036,10.9,10.9,0,0,1,3.928,1.028,6.587,6.587,0,0,1,2.69,2.849Z" transform="translate(-37.94 -50.364)"/>
    <path class="cls-25" d="M239.327,407.749a4.7,4.7,0,0,0-2.3-2.129,10.786,10.786,0,0,0-5.884-.472,5.122,5.122,0,0,0-2.274,1.137,3.018,3.018,0,0,0-1.108,2.3,2.385,2.385,0,0,0,.277,1.263,3.073,3.073,0,0,0,.74.912,4.9,4.9,0,0,0,1.278.688,13.271,13.271,0,0,0,1.532.508q.686.176,1.846.438a21.445,21.445,0,0,1,4.811,1.519,4.3,4.3,0,0,1,2.448,4.229,4.691,4.691,0,0,1-.821,2.593,4.567,4.567,0,0,1-1.951,1.583,10.2,10.2,0,0,1-2.407.71,12.8,12.8,0,0,1-2.549.146,10.447,10.447,0,0,1-4.549-1.223,6.757,6.757,0,0,1-3.085-3.206l1.328-.6a5.616,5.616,0,0,0,2.605,2.644,8.654,8.654,0,0,0,3.753,1.057,11.64,11.64,0,0,0,1.962-.088,8.9,8.9,0,0,0,1.95-.5,3.591,3.591,0,0,0,1.624-1.188,3.433,3.433,0,0,0,.675-2.014,3.355,3.355,0,0,0-.169-1.244,2.316,2.316,0,0,0-.683-.992,7.547,7.547,0,0,0-.951-.717,6.239,6.239,0,0,0-1.324-.567q-.859-.278-1.4-.422t-1.563-.372q-1.132-.262-1.738-.421t-1.572-.482a6.379,6.379,0,0,1-1.484-.67,8.781,8.781,0,0,1-1.069-.856,2.877,2.877,0,0,1-.783-1.2,4.276,4.276,0,0,1-.2-1.532,4.5,4.5,0,0,1,.735-2.486,4.426,4.426,0,0,1,1.856-1.574,10.075,10.075,0,0,1,2.354-.753,11.221,11.221,0,0,1,2.482-.176,10.87,10.87,0,0,1,3.98.807,6.586,6.586,0,0,1,2.847,2.693Z" transform="translate(-37.94 -50.364)"/>
    <path class="cls-25" d="M287.475,422.161l-2.338-4.558-11.345.6-1.814,4.778-1.574.084,7.514-19.452,1.6-.085,9.531,18.547Zm-2.979-5.885-5.716-11.292-4.489,11.834Z" transform="translate(-37.94 -50.364)"/>
    <path class="cls-25" d="M302.177,401.744l14.723,13.95-2.031-15.6,1.43-.187,2.453,18.863-.565.074L303.44,404.923l2.026,15.575-1.456.188-2.453-18.862Z" transform="translate(-37.94 -50.364)"/>
    <path class="cls-25" d="M349.243,412.4l-2.084-8.383-11.76,2.924,2.086,8.384-1.424.354-4.591-18.455,1.425-.354,2.184,8.779,11.758-2.925-2.185-8.779,1.425-.354,4.591,18.455Z" transform="translate(-37.94 -50.364)"/>
  </g>
  <path class="cls-26" d="M242.625,228.439c-.031.575,26.205,1.552,27.574.093.037-.039-.115-.464.035-.4.309.124.52,1.851.348,1.894-4.508,1.106-22.879,1.462-28.6-.34C241.521,229.534,242.657,227.848,242.625,228.439Z" transform="translate(-37.94 -50.364)"/>
  <circle class="cls-27" cx="211.607" cy="181.685" r="1.755"/>
  <circle class="cls-25" cx="208.799" cy="117.165" r="0.334"/>
  <path class="cls-26" d="M250.7,231.08c-.536-.646-1.255.377-1.255.377s-.419-.979-.94-.447c-.656.67.919,1.862.919,1.862S251.3,231.8,250.7,231.08Z" transform="translate(-37.94 -50.364)"/>
</svg>
