<svg xmlns="http://www.w3.org/2000/svg" xmlns:xlink="http://www.w3.org/1999/xlink" viewBox="0 0 449.223 449.223">
  <defs>
    <style>
      .cls-1 {
        isolation: isolate;
      }

      .cls-2, .cls-4, .cls-5, .cls-6 {
        opacity: 0.5;
      }

      .cls-2 {
        fill: url(#radial-gradient);
      }

      .cls-3 {
        fill: url(#radial-gradient-2);
      }

      .cls-4 {
        fill: #009adb;
        mix-blend-mode: screen;
      }

      .cls-5, .cls-6, .cls-7 {
        mix-blend-mode: multiply;
      }

      .cls-5 {
        fill: url(#radial-gradient-3);
      }

      .cls-6 {
        fill: url(#radial-gradient-4);
      }

      .cls-7 {
        opacity: 0.4;
      }

      .cls-8 {
        fill: #cc27b2;
      }

      .cls-9 {
        fill: #ff5ebe;
      }

      .cls-10, .cls-11 {
        fill: #f6d7a9;
      }

      .cls-10, .cls-12, .cls-13, .cls-14, .cls-15, .cls-16, .cls-17, .cls-18, .cls-19, .cls-20, .cls-22, .cls-23, .cls-24, .cls-25, .cls-26, .cls-27, .cls-28, .cls-29 {
        fill-rule: evenodd;
      }

      .cls-12 {
        fill: #28192f;
      }

      .cls-13 {
        fill: #ef8871;
      }

      .cls-14 {
        fill: #ffb9a9;
      }

      .cls-15 {
        fill: #b382c9;
      }

      .cls-16 {
        fill: #50315e;
      }

      .cls-17 {
        fill: #784a8d;
      }

      .cls-18 {
        fill: #f9d8cf;
      }

      .cls-19, .cls-31 {
        fill: #fff;
      }

      .cls-20 {
        fill: #e8685b;
      }

      .cls-21 {
        fill: #ff7fa0;
      }

      .cls-22 {
        fill: #210309;
      }

      .cls-23 {
        fill: #fdf3f2;
      }

      .cls-24 {
        fill: #ff8aab;
      }

      .cls-25 {
        fill: #bf6780;
      }

      .cls-26 {
        fill: #a063bc;
      }

      .cls-27 {
        fill: #fce6d7;
      }

      .cls-28 {
        fill: #ffd0dd;
      }

      .cls-29 {
        fill: #2e1838;
      }

      .cls-30 {
        fill: #ffe0d9;
      }
    </style>
    <radialGradient id="radial-gradient" cx="224.611" cy="222.439" r="219.143" gradientUnits="userSpaceOnUse">
      <stop offset="0.063" stop-color="#ff5ebe"/>
      <stop offset="0.236" stop-color="#ff5fbf" stop-opacity="0.989"/>
      <stop offset="0.361" stop-color="#ff60c0" stop-opacity="0.952"/>
      <stop offset="0.47" stop-color="#fe63c4" stop-opacity="0.89"/>
      <stop offset="0.571" stop-color="#fd67c8" stop-opacity="0.803"/>
      <stop offset="0.665" stop-color="#fc6dce" stop-opacity="0.69"/>
      <stop offset="0.756" stop-color="#fb74d5" stop-opacity="0.551"/>
      <stop offset="0.843" stop-color="#f97bdd" stop-opacity="0.386"/>
      <stop offset="0.924" stop-color="#f884e7" stop-opacity="0.2"/>
      <stop offset="1" stop-color="#f68ef1" stop-opacity="0"/>
    </radialGradient>
    <radialGradient id="radial-gradient-2" cx="171.486" cy="93.482" r="347.188" gradientUnits="userSpaceOnUse">
      <stop offset="0.144" stop-color="#009adb"/>
      <stop offset="0.937" stop-color="#ff5ebe"/>
    </radialGradient>
    <radialGradient id="radial-gradient-3" cx="181.477" cy="142.584" r="317.715" xlink:href="#radial-gradient-2"/>
    <radialGradient id="radial-gradient-4" cx="218.085" cy="242.882" r="231.295" xlink:href="#radial-gradient-2"/>
  </defs>
  <title>female teacher</title>
  <g class="cls-1">
    <g id="OBJECTS">
      <g>
        <circle class="cls-2" cx="224.611" cy="224.612" r="224.611"/>
        <circle class="cls-3" cx="224.611" cy="224.612" r="184.408"/>
        <path class="cls-4" d="M70,272.4C70,170.551,152.56,87.988,254.406,87.988A184.34,184.34,0,0,1,415.95,183.442,184.428,184.428,0,1,0,78.472,327.775,184.3,184.3,0,0,1,70,272.4Z" transform="translate(-15.405 -14.21)"/>
        <path class="cls-5" d="M293.6,352.972A184.434,184.434,0,0,1,124.4,95.2a184.02,184.02,0,0,0-68.8,143.625c0,101.846,82.562,184.408,184.408,184.408a184.426,184.426,0,0,0,169.2-111.041A183.591,183.591,0,0,1,293.6,352.972Z" transform="translate(-15.405 -14.21)"/>
        <path class="cls-6" d="M357.593,96.762A167.256,167.256,0,0,1,55.628,239.579c.41,101.5,82.8,183.651,184.389,183.651,101.846,0,184.408-82.562,184.408-184.408A184.022,184.022,0,0,0,357.593,96.762Z" transform="translate(-15.405 -14.21)"/>
        <g class="cls-7">
          <path class="cls-8" d="M156.824,92.812c10.05,13.433,4.918,32.214,5.019,48.991.2,33.606,26.5,65.223,59.509,71.544,8.057,1.543,16.743,1.642,24.089-2.009s12.869-11.8,11.479-19.883c-1.248-7.259-7.357-12.588-10.677-19.163a27.188,27.188,0,0,1,6.031-31.635c7.059-6.272,17.225-8.568,23.428-15.688,10.241-11.755,4.964-29.885-1.252-44.183-3.33-7.66-6.708-16.183-7.8-24.431a185.782,185.782,0,0,0-26.63-1.941A183.49,183.49,0,0,0,142.4,82.39C148.069,84.694,153.157,87.912,156.824,92.812Z" transform="translate(-15.405 -14.21)"/>
          <path class="cls-9" d="M122.338,380.792c5.986-4.056,10.258-10.182,9.6-17.212-1.233-13.212-18.315-20.55-19.715-33.745-.947-8.925,5.995-16.983,13.935-21.166s17-5.667,25.365-8.929c4.186-1.633,8.679-4.336,9.4-8.77.516-3.152-1.063-6.227-2.59-9.032-7.813-14.342-18.2-30.45-34.478-31.791-4.912-.405-9.955.652-14.737-.542-11.174-2.789-15.97-16.485-14.909-27.953s6.008-22.376,6.456-33.884c.493-12.664-5.349-25.993-16.4-32.2a24.872,24.872,0,0,0-7.417-2.67,184.387,184.387,0,0,0,45.484,227.893Z" transform="translate(-15.405 -14.21)"/>
          <path class="cls-9" d="M372.22,110.321c-10.119-1.019-20.023-2.072-25.27-10.086l1.115,1.52a62.015,62.015,0,0,1-7.915,46.962c-3.113,4.9-6.938,9.382-9.345,14.663s-3.184,11.781-.116,16.707c4.065,6.527,13.044,7.831,20.691,7.024s15.462-3.026,22.877-.992c13.707,3.761,23.255,21.2,37.2,18.437a15.315,15.315,0,0,0,8.649-5.384A183.963,183.963,0,0,0,372.22,110.321Z" transform="translate(-15.405 -14.21)"/>
          <path class="cls-8" d="M380.036,358.754a24.722,24.722,0,0,0-4.289-7.185c-7.846-9.107-20.864-11.094-32.336-14.685s-23.873-11.853-23.524-23.869c.273-9.389,7.429-21.442-.592-26.33-2.255-1.374-5.047-1.434-7.687-1.386-16.454.3-37.014,1.129-44.657-13.445-4.79-9.134-1.811-20.663-5.745-30.2-7.141-17.31-33.951-17.735-47.448-4.755s-16.722,33.156-17.839,51.848c-1.367,22.884-.208,47.449,13.054,66.149,3.132,4.417,7.1,9.146,6.28,14.5-1.776,11.63-19.9,8.841-29.6,15.506-9.336,6.418-8.133,21.251-.731,29.949a184.54,184.54,0,0,0,195.112-56.1Z" transform="translate(-15.405 -14.21)"/>
        </g>
        <path class="cls-4" d="M303.372,111.3c14.381-6.042,30.942-4.5,45.653-9.689a33.372,33.372,0,0,0,8.7-4.728A183.644,183.644,0,0,0,240.017,54.414c-91.84,0-167.971,67.146-182.05,155.018L60.1,226.067c-3.477,17.819-3.713,36.771,3.018,53.632s21.32,31.244,39.2,34.367c7.893,1.379,16.63.347,22.792-4.775,9.169-7.623,9.829-21.115,11.355-32.941s6.884-25.651,18.653-27.566c12.016-1.955,21.891,10.615,23.671,22.659s-1.454,24.319-.483,36.455c1.906,23.846,22.56,45.209,46.443,46.571s47.357-18.7,48.449-42.594c.536-11.722-3.682-23.126-8.612-33.775a241.029,241.029,0,0,0-26.775-44.5c-6.273-8.257-13.279-16.509-15.6-26.616C217.474,186.3,238.907,164.4,259.688,168.7c12.411,2.568,22.292,12.245,34.506,15.626s29.384-5.983,25.034-17.886c-4.1-11.224-21.212-9.792-29.748-18.155C278.34,137.366,288.991,117.338,303.372,111.3Z" transform="translate(-15.405 -14.21)"/>
        <circle class="cls-4" cx="155.677" cy="208.737" r="75.578"/>
        <circle class="cls-4" cx="255.497" cy="113.196" r="34.224"/>
        <circle class="cls-4" cx="285.544" cy="202.825" r="15.139"/>
      </g>
      <path class="cls-10" d="M391.848,423.791a1.238,1.238,0,1,1,2.475,0v2.867h2.869a1.238,1.238,0,0,1,0,2.477h-2.869V432a1.238,1.238,0,1,1-2.475,0v-2.867H388.98a1.238,1.238,0,1,1,0-2.477h2.867Z" transform="translate(-15.405 -14.21)"/>
      <g>
        <path class="cls-10" d="M300.057,86.036a1.238,1.238,0,0,1,2.477,0V88.9H305.4a1.238,1.238,0,1,1,0,2.477h-2.867v2.867a1.238,1.238,0,1,1-2.477,0V91.381h-2.868a1.238,1.238,0,0,1,0-2.477h2.868Z" transform="translate(-15.405 -14.21)"/>
        <path class="cls-10" d="M112.534,180.107a1.238,1.238,0,0,1,2.476,0v2.868h2.868a1.239,1.239,0,0,1,0,2.477h-2.868v2.867a1.238,1.238,0,1,1-2.476,0v-2.867h-2.867a1.239,1.239,0,0,1,0-2.477h2.867Z" transform="translate(-15.405 -14.21)"/>
        <path class="cls-10" d="M68.606,364.106a1.238,1.238,0,1,1,2.477,0v2.869h2.868a1.237,1.237,0,1,1,0,2.475H71.083v2.869a1.238,1.238,0,0,1-2.477,0v-2.869H65.739a1.237,1.237,0,1,1,0-2.475h2.867Z" transform="translate(-15.405 -14.21)"/>
        <path class="cls-10" d="M420.856,210.773a1.238,1.238,0,1,1,2.476,0v2.868H426.2a1.238,1.238,0,1,1,0,2.477h-2.869v2.868a1.238,1.238,0,1,1-2.476,0v-2.868h-2.867a1.238,1.238,0,1,1,0-2.477h2.867Z" transform="translate(-15.405 -14.21)"/>
        <path class="cls-10" d="M395.981,54.135a1.239,1.239,0,0,1,2.478,0V57h2.867a1.238,1.238,0,1,1,0,2.477h-2.867v2.868a1.239,1.239,0,0,1-2.478,0V59.481h-2.867a1.238,1.238,0,0,1,0-2.477h2.867Z" transform="translate(-15.405 -14.21)"/>
        <path class="cls-10" d="M75.237,64.082a1.238,1.238,0,0,1,2.477,0V66.95h2.868a1.238,1.238,0,1,1,0,2.476H77.714v2.868a1.238,1.238,0,0,1-2.477,0V69.426H72.369a1.238,1.238,0,0,1,0-2.476h2.868Z" transform="translate(-15.405 -14.21)"/>
        <path class="cls-10" d="M56.175,425.449a1.238,1.238,0,1,1,2.477,0v2.867h2.867a1.238,1.238,0,1,1,0,2.477H58.651v2.867a1.238,1.238,0,0,1-2.477,0v-2.867H53.307a1.238,1.238,0,0,1,0-2.477h2.868Z" transform="translate(-15.405 -14.21)"/>
        <circle class="cls-11" cx="317.794" cy="130.639" r="2.176"/>
        <circle class="cls-11" cx="327.325" cy="130.639" r="2.176"/>
        <circle class="cls-11" cx="336.857" cy="130.639" r="2.176"/>
        <circle class="cls-11" cx="346.389" cy="130.639" r="2.176"/>
        <circle class="cls-11" cx="355.92" cy="130.639" r="2.176"/>
        <circle class="cls-11" cx="323.181" cy="139.342" r="2.176"/>
        <circle class="cls-11" cx="342.244" cy="139.342" r="2.176"/>
        <circle class="cls-11" cx="351.776" cy="139.342" r="2.176"/>
        <circle class="cls-11" cx="140.427" cy="38.33" r="2.176"/>
        <circle class="cls-11" cx="149.958" cy="38.33" r="2.176"/>
        <circle class="cls-11" cx="159.489" cy="38.33" r="2.176"/>
        <circle class="cls-11" cx="169.021" cy="38.33" r="2.176"/>
        <circle class="cls-11" cx="178.553" cy="38.33" r="2.176"/>
        <circle class="cls-11" cx="145.814" cy="47.033" r="2.176"/>
        <circle class="cls-11" cx="164.877" cy="47.033" r="2.176"/>
        <circle class="cls-11" cx="174.408" cy="47.033" r="2.176"/>
      </g>
      <path class="cls-12" d="M303.187,253.684c-24.363,13.185-87.792,4.157-87.792,4.157s10.239-19.834,2.691-62.27c18.3-29.881,79.869-48.8,79.869-48.8l14.219,8.117s-2.7,17.843-5.049,42.967" transform="translate(-15.405 -14.21)"/>
      <path class="cls-13" d="M152.168,204.766a68.892,68.892,0,0,0,8.025.975c3.537.145,3.588.108,4.378.951s3.131,4.238,3.39,6.237-1.635,5.649-3.509,7.888-5.677,4.565-6.443,9.882l-3.024,2.94-11.575-1.669s.161-1.117.445-3.084-2.411-3.435-2.706-5.909a27.223,27.223,0,0,1,.476-7.414c.406-2.816,1.411-9.787,1.411-9.787S145.31,204.074,152.168,204.766Z" transform="translate(-15.405 -14.21)"/>
      <path class="cls-14" d="M160.256,208.691l2.986-2.768s-1.353-1.444-.906-4.536,3.9-27.071,4.281-29.7-5.723-.8-7.215,5.6-2,13.07-2.627,17.427c0,0-17.384,5.876-18.647,7.518s-1.457,10.111-.918,12.3,5.645,4.749,5.645,4.749Z" transform="translate(-15.405 -14.21)"/>
      <path class="cls-13" d="M161.243,207.776l2-1.853s-1.353-1.444-.906-4.536l.762-5.29c-1.378,9.559-10.209,8.794-10.209,8.794l1.535,3.718Z" transform="translate(-15.405 -14.21)"/>
      <path class="cls-13" d="M152.595,213.356l4.19-2.551-4.724-4.389-2.43-1.258a4.5,4.5,0,0,0-.533,3.8C149.542,210.907,151.693,212.685,152.595,213.356Z" transform="translate(-15.405 -14.21)"/>
      <path class="cls-14" d="M152.168,204.766a68.892,68.892,0,0,0,8.025.975c3.537.145,3.588.108,4.378.951s3.131,4.238,3.39,6.237-1.635,5.649-3.509,7.888-5.677,4.565-6.443,9.882l-3.024,2.94-1.978-.285,1.027-7.127c.258-1.789-2.778-2.956-2.153-7.291s5.283-6.9,5.283-6.9c-7.508-1.082-8.018-4.509-7.8-5.983.2-1.389.915-1.42,1-1.418C150.922,204.657,151.524,204.7,152.168,204.766Z" transform="translate(-15.405 -14.21)"/>
      <path class="cls-15" d="M226.548,236.009A65.9,65.9,0,0,0,213.31,246.2c-10.159,10.385-53.618,61.522-54.634,62.2s-1.693.113-2.145-.676,2.935-76.591,2.935-76.591a1.689,1.689,0,0,0-1.3-1.3s-5.908,2.311-14.312-.944c0,0-.953.272-1.234.752s-14,87.821-14,95.046,5.869,15.125,14,19.416c11.894,6.275,61.482-31.506,72.469-38.607l16.123-46.043C229.615,250.261,226.777,237.069,226.548,236.009Z" transform="translate(-15.405 -14.21)"/>
      <path class="cls-16" d="M226.548,236.009A65.9,65.9,0,0,0,213.31,246.2c-4.257,4.352-14.359,15.857-24.735,27.807-2.078,12.5-8.774,50.375-14.344,54.889-6.658,5.4-25.342,15.551-25.478,15.623,17.635-3.174,56.732-32.82,66.336-39.029l16.123-46.043c-1.6-9.189-4.435-22.38-4.664-23.44ZM153.4,230.615h0s-3.371.755-5.99,7.167-17.741,77.333-17.8,77.6c3.15-24.256,12.771-85.347,13.008-85.747.281-.48,1.234-.752,1.234-.752A24.322,24.322,0,0,0,153.4,230.615Z" transform="translate(-15.405 -14.21)"/>
      <path class="cls-15" d="M304.382,246.869a41.5,41.5,0,0,0-6.249-5.218c-7.577-2.482-20.471-6.7-20.645-6.755-10.424-1.121-22.917-.638-39.205-2.24a23.945,23.945,0,0,0-17.328,7.779c-8.34,8.7-19.314,27.579-27.617,39.4-3.9,5.553-3.56,14.7-.678,23.557v0A193.068,193.068,0,0,1,198.6,331.34c1.992,14.094,2.167,60.482,1.244,77.012-.152,2.744,1.426,3.719,1.2,4.3,0,0,67.337,20.387,97.94-8.828-23.388-59.816-12.809-74.43,1.237-115.564.526-1.541,1.036-3.129,1.518-4.742C304.865,269.625,305.229,253.773,304.382,246.869Z" transform="translate(-15.405 -14.21)"/>
      <path class="cls-16" d="M192.619,280.982c-3.123,5.615-2.65,14.141.04,22.408v0s.575,1.832,1.415,5.072c.631-1.521,1.441-2.822,2.382-2.891,2.326-.172,60.532,7.59,66.807,15.686s14.094,71.336,8.234,82.658c-5.354,10.346-37.378,13.779-42.863,14.3a164.5,164.5,0,0,0,19.693,1.355c17.814-.084,36.679-3.7,49.3-15.744-23.389-59.816-12.81-74.43,1.237-115.564a98.233,98.233,0,0,0,4.909-20.814c.4-3.89.759-7.281.984-10.293q.021-1.178.019-2.285c-5.875-5.258-12.957-8.3-16.563,2.478-6.82,20.38-19.142,39.333-29.135,39.892s-54.091-7.412-61.389-9.9C193.506,285.9,192.616,283.109,192.619,280.982Z" transform="translate(-15.405 -14.21)"/>
      <path class="cls-17" d="M237.579,242.23s-2.2,1.564-4.362,3.225a30.029,30.029,0,0,0-4.035,3.458c-1.175,1.534,7.4,36.392,7.4,36.392l11.56-3.07Z" transform="translate(-15.405 -14.21)"/>
      <polygon class="cls-18" points="223.936 229.469 223.524 278.051 246.031 244.051 240.32 244.436 229.232 248.503 223.936 229.469"/>
      <path class="cls-19" d="M239.118,270.1l-.077,9.113a44.238,44.238,0,0,0,7.208-1.127,27.477,27.477,0,0,0,3.883-2.744l11.3-17.076-5.711.385-8.979,3.291-3.929,2.556A37.53,37.53,0,0,0,239.118,270.1Z" transform="translate(-15.405 -14.21)"/>
      <path class="cls-15" d="M277.72,234.69a27.094,27.094,0,0,1-3.014-.053c-7.169,12.367-16.461,21.529-27.145,32.3-20.363,20.535-25.281,20.385-19.909,50.607,1.24,6.969,8.568,65.121,6.045,101.238,21.558,2.129,48.773.813,65.292-14.957-21.353-54.611-14.393-71.545-2.33-105.381.015-.043.031-.086.048-.127h0l.025-.053a3.387,3.387,0,0,1,.158-.314c9.173-18.213,8.857-53.785,6.435-54.592-2.438-.814-25.841-8.465-25.841-8.465Z" transform="translate(-15.405 -14.21)"/>
      <path class="cls-12" d="M226.315,293.252c-.968,4.221-.885,9.361.124,16.7,16.207,2.963,33.556,7.086,36.823,11.3,6.274,8.1,14.094,71.336,8.234,82.658-4.4,8.508-26.838,12.342-37.725,13.723-.024.383-.049.766-.075,1.143,4.7.465,9.676.766,14.747.787,17.78-.1,37.953-3.723,50.545-15.744-23.388-59.816-12.809-74.43,1.237-115.564,2.248-6.582,2.85-14.027,3.546-20.814.4-3.89.759-7.281.984-10.293.014-.786.019-1.547.019-2.287-5.875-5.256-12.223-.6-12.223-.6s-25.914,42.545-33.476,42.969S239.829,295.565,226.315,293.252Z" transform="translate(-15.405 -14.21)"/>
      <path class="cls-15" d="M303.323,243.359a20.46,20.46,0,0,1,9.206,8.818c10.231,18.887,22.277,75.481,23.916,99.875,1.585,23.568-18.31,25.309-25.382,6.3-5.562-14.951-17.586-56.506-17.586-56.506S278.578,254.614,303.323,243.359Z" transform="translate(-15.405 -14.21)"/>
      <path class="cls-16" d="M335.523,342.772c.426,3.432.74,6.559.922,9.281,1.585,23.568-18.31,25.309-25.382,6.3-5.562-14.951-17.586-56.506-17.586-56.506s-9.35-29.647-.927-47.559c-.062.515-1.732,14.906,3.411,28.738,5.238,14.088,20.545,55.014,22.1,60.287C318.844,345.949,327.285,344.69,335.523,342.772Z" transform="translate(-15.405 -14.21)"/>
      <path class="cls-17" d="M269.224,243c-6.2,8.463-13.526,15.73-21.662,23.935-8.221,8.291-13.924,13.209-17.448,18.117.1-.062,42.958-26.211,45.123-27.293s-1.083-13.364-1.083-13.364Z" transform="translate(-15.405 -14.21)"/>
      <path class="cls-14" d="M270.242,198.429l-.431,9.434s-.059,19.328-.067,22.263c0,1.469,1.433,3.065,3.936,4.432-3.709,5.675-21.686,29.06-28.365,28.332s-6.25-29.343-6.25-29.343a9.934,9.934,0,0,0,2.605-2.045,10.612,10.612,0,0,0,1.9-5.076c1.052-6.1.363-15.258-1.979-18.257C238.377,204.048,270.242,198.429,270.242,198.429Z" transform="translate(-15.405 -14.21)"/>
      <path class="cls-13" d="M270.242,198.429l-.431,9.434s-.059,19.328-.067,22.263c0,1.469,1.433,3.065,3.936,4.432-3.709,5.675-21.686,29.06-28.365,28.332a2.5,2.5,0,0,1-1.082-.395c-.328-.257-.524-.42-.575-.461l-.019-.019c.034-.04,21.614-26.31,19.448-27.122-1.611-.6-13.658-5.1-19.729-7.371.079-.353.149-.719.216-1.1,1.051-6.1.362-15.257-1.979-18.257C238.377,204.048,270.242,198.429,270.242,198.429Z" transform="translate(-15.405 -14.21)"/>
      <g>
        <path class="cls-20" d="M294.6,170.953c.278.047.551.1.82.169l.009,0h0a11.277,11.277,0,1,1-9.483,1.934c-.4,3.316-.021,7.451,4.211,8.014l.106-6.5C290.3,171.94,292.8,170.817,294.6,170.953Z" transform="translate(-15.405 -14.21)"/>
        <path class="cls-20" d="M213.284,168.09c-.28.028-.557.065-.831.111l-.009,0h0a11.276,11.276,0,1,0,9.324,2.6c.169,3.336-.5,7.434-4.764,7.7l.351-6.493C217.5,169.377,215.09,168.081,213.284,168.09Z" transform="translate(-15.405 -14.21)"/>
      </g>
      <path class="cls-14" d="M255.921,113.243h0a38.713,38.713,0,0,1,37.217,39.931L291.9,188.258a38.711,38.711,0,0,1-39.933,37.214h0a38.708,38.708,0,0,1-37.212-39.93l1.235-35.084A38.71,38.71,0,0,1,255.921,113.243Z" transform="translate(-15.405 -14.21)"/>
      <path class="cls-13" d="M285.836,129.27a38.353,38.353,0,0,1,7.3,23.9L291.9,188.258a38.713,38.713,0,0,1-39.933,37.215h0a38.287,38.287,0,0,1-10.21-1.758c34.643,1.82,40.291-26.03,40.472-29.822s.451-9.482.451-14.448a16.542,16.542,0,0,0-1.651-7.793s-10.044-12.526-11.76-14.286-3.161-2.664-4.516-2.664h-1.986c-5.509,6.14-20.967,8.947-24.842,8.947H225.375c-7.508,0-9.98,3.735-9.98,3.735h0l.513-14.556c6.029-6.989,19.4-21.413,28.394-23.048C252.1,128.359,267.333,128.8,285.836,129.27Z" transform="translate(-15.405 -14.21)"/>
      <path class="cls-19" d="M257.053,197.288a9.989,9.989,0,0,1-19.977.083h.018a1.729,1.729,0,0,1,1.718-1.732l16.492-.068a1.728,1.728,0,0,1,1.732,1.716Z" transform="translate(-15.405 -14.21)"/>
      <g>
        <circle class="cls-21" cx="225.469" cy="192.663" r="5.076" transform="translate(13.781 400.777) rotate(-89.074)"/>
        <circle class="cls-21" cx="269.128" cy="193.37" r="5.076" transform="matrix(0.016, -1, 1, 0.016, 56.004, 445.109)"/>
      </g>
      <path class="cls-22" d="M263.311,182.7a3.468,3.468,0,1,1,6.933.245,1.478,1.478,0,1,0,2.955.1,6.424,6.424,0,1,0-12.841-.451,1.477,1.477,0,0,0,2.953.1Z" transform="translate(-15.405 -14.21)"/>
      <path class="cls-22" d="M223.571,181.305a3.469,3.469,0,1,1,6.934.244,1.478,1.478,0,1,0,2.954.1,6.424,6.424,0,1,0-12.841-.451,1.477,1.477,0,0,0,2.953.1Z" transform="translate(-15.405 -14.21)"/>
      <path class="cls-22" d="M271.923,170.484a1.474,1.474,0,1,0,1.407-2.589c-3.656-1.988-8.417-2.433-12.14-.374a1.475,1.475,0,0,0,1.425,2.583A9.985,9.985,0,0,1,271.923,170.484Z" transform="translate(-15.405 -14.21)"/>
      <path class="cls-22" d="M222.762,168.758c2.993-1.257,6.476-1.58,9.324.27a1.475,1.475,0,0,0,1.6-2.475c-3.516-2.281-8.418-2.238-12.142-.48a1.473,1.473,0,0,0,1.213,2.685Z" transform="translate(-15.405 -14.21)"/>
      <path class="cls-16" d="M215.187,173.306s-.639-4.035-5.586-4.208c-14.568-17.991-11.591-45.626,5.123-59.422s51.554-13.49,57.561-11.251,11.9,12.771,11.9,12.771,5.322-4.421,10.024-1.858,19.663,33.326,19.4,40.878-15.413,22-15.413,22c-4.947-.174-5.866,3.807-5.866,3.807l-.192,5.433c-4.945-.174-5.135-6.45-5-10.179,0,0-7.891-7.508-7.638-14.693l3.13-10.32-4.516-11.288L257.8,125.72l-36.984,7.422L219.333,154.6v0h0S219.06,169.731,215.187,173.306Z" transform="translate(-15.405 -14.21)"/>
      <path class="cls-17" d="M201.056,150.572c-2.917-15.063,2.063-31.316,13.669-40.9,16.713-13.794,51.554-13.49,57.561-11.251s11.9,12.771,11.9,12.771,5.322-4.421,10.024-1.858c3.231,1.76,11.308,16.839,15.958,28.551-2.668,5.019-6.613,9.346-12.215,8.877-5.1-.427-11.465-2.749-17.279-5.388l-2.561-6.4L257.8,125.72l-36.984,7.422-1.452,21.026A94.1,94.1,0,0,1,201.056,150.572Z" transform="translate(-15.405 -14.21)"/>
      <path class="cls-23" d="M242.83,244.534l2.484,18.355-1.792.915s-8.568-15.5-8.726-15.881a.984.984,0,0,1,.2-1.062c.27-.339,3.318-3.432,3.318-3.432Z" transform="translate(-15.405 -14.21)"/>
      <path class="cls-19" d="M242.339,230.519a4.773,4.773,0,0,0-1.678-.389,17.236,17.236,0,0,0-2.754,1.67c-.406.27-3.566,10.881-3.476,11.423a.811.811,0,0,0,.9.633c.315,0,7.5.678,7.5.678l-1.749-12.441A3.758,3.758,0,0,0,242.339,230.519Z" transform="translate(-15.405 -14.21)"/>
      <path class="cls-23" d="M260.894,246.806l-18.077,17.688s29.373-9.786,29.914-10.1.633-.5.678-1.265-1.715-7.179-1.715-7.179Z" transform="translate(-15.405 -14.21)"/>
      <path class="cls-19" d="M270.163,231.549a7.593,7.593,0,0,1,2.9-1.011c1.174,0,4.423,4.355,4.423,4.355s-.019,10.6-.742,12.95c0,0-.135.361-.767.361s-15.078-1.4-15.078-1.4,11.128-9.6,11.648-12.934A7.16,7.16,0,0,1,270.163,231.549Z" transform="translate(-15.405 -14.21)"/>
      <path class="cls-19" d="M260.369,296.857l-4.146-2.926s3.992-4.172,5.063-5.006,2.594-1.588,6.257-1.834S292.6,286.34,311.46,297.4a51.131,51.131,0,0,1,5.135,3.984,2.16,2.16,0,0,0,1.2-.117c.8-.246,3-.57,3.748-1.783a14.578,14.578,0,0,0,.658-2c3.553-12.02,9.766-25.781,23.566-29.748a5.647,5.647,0,0,1,1.961.191,10.132,10.132,0,0,1,2.426,1.844L338.1,302.557s-10.012,9.818-11.35,11.547-10.935,5.7-19.657,3.059S260.369,296.857,260.369,296.857Z" transform="translate(-15.405 -14.21)"/>
      <path class="cls-24" d="M253.88,293.363a3.228,3.228,0,0,0-1.467,2.832c.119,1.883,5.293,45.229,5.652,47.279s.94,3.154,2.919,3.092,35.507-.262,60.679,7.4a5.279,5.279,0,0,0,2.939-.045c1.3-.516,4.971-2.988,5.485-3.812s8.182-17.543,14.44-20.135a3.745,3.745,0,0,0,1.826-2.908c.145-2.016.988-13.9,1.66-23.371s2.22-28.395,4.895-34.684a1.107,1.107,0,0,0-.717-1.316c-.943-.27-20.76,7.267-27.668,33.877,0,0-4.9,3.4-10.31,2.607C314.215,304.178,285.477,286.85,253.88,293.363Z" transform="translate(-15.405 -14.21)"/>
      <path class="cls-25" d="M257.267,337.272c.424,3.422.722,5.764.8,6.2.361,2.051.94,3.154,2.919,3.092s35.507-.262,60.679,7.4a5.279,5.279,0,0,0,2.939-.045c1.3-.516,4.971-2.988,5.485-3.812s8.182-17.543,14.44-20.135a3.745,3.745,0,0,0,1.826-2.908l.273-3.842c-11.425,3.275-15.285-.832-15.99-4.67-.681-3.705-1.982-17.709-2.769-26.555a60.454,60.454,0,0,0-3.343,9.572s-4.9,3.4-10.311,2.607a71.027,71.027,0,0,0-6.5-3.314c2.542,7.232,4.7,15.547,4.415,22.43-.656,15.959-3.838,20.2-10.5,20.658s-25.172-1.582-34.654-2.371A16.769,16.769,0,0,1,257.267,337.272Z" transform="translate(-15.405 -14.21)"/>
      <path class="cls-24" d="M318.9,353.164q1.4.387,2.765.8a5.279,5.279,0,0,0,2.939-.045,24.952,24.952,0,0,0,4.986-3.275c-.751-10.008-3.241-43.269-3.339-45.512a4.233,4.233,0,0,0-1.726-3.562s-4.9,3.4-10.31,2.607a3.285,3.285,0,0,1,.717,1.7c.038.889,3.967,47.291,3.967,47.291Z" transform="translate(-15.405 -14.21)"/>
      <path class="cls-14" d="M327.819,362.758a8,8,0,0,1-5.756-.914c-2.613-1.705-3.066-3.863-3.342-6.414s-.412-4.182-.412-4.182-2.693-5.557-3.362-6.109-4.769-3.428-5.51-4.393a1.9,1.9,0,0,1,1.589-3.125,11.616,11.616,0,0,1-2.6-1.857,4.011,4.011,0,0,1-.474-3.322c.353-.684,3.608-.2,3.608-.2s-2.407-1.74-2.792-2.728a4.128,4.128,0,0,1,.067-3.084c.391-.529,6.2,1.1,11.42,2.432a12.953,12.953,0,0,1,4.617,2c2.068,1.514,3.367,2.467,3.367,2.467a46.9,46.9,0,0,0-4.473-6.141c-1.566-1.477-6.015-5.133-6.745-6.248a5.222,5.222,0,0,1-.57-3.383c.137-.5.637-1.119,2.1-.406s5.719,3.594,9.552,5.941,4.059,3.428,5.57,6.371,3.275,8.785,3.978,11.014-1.429,8-2.945,12.244S331.5,362.258,327.819,362.758Z" transform="translate(-15.405 -14.21)"/>
      <path class="cls-13" d="M327.819,362.758a8,8,0,0,1-5.756-.914c-2.613-1.705-3.066-3.863-3.342-6.414s-.412-4.182-.412-4.182-2.693-5.557-3.362-6.109-4.769-3.428-5.51-4.393a2.247,2.247,0,0,1-.3-1.984,25.892,25.892,0,0,0,4.465,2.609c5.139,2.57,8.039,5.637,8.371,10.029.3,3.988,5.313,9.272,11.816,3.889-1.332,3.566-3.006,7.068-5.966,7.469Zm-17.256-25.113c3.409.594,12.648,4.059,12.648,4.059a18.8,18.8,0,0,0-4.31-2.734c-2.481-1.274-8.234-3.033-11.036-4.57a3.187,3.187,0,0,0,.559,1.365,11.616,11.616,0,0,0,2.6,1.857,2.7,2.7,0,0,0-.463.023Zm-2.029-5.5a12.422,12.422,0,0,1,3.025.1s-2.407-1.74-2.792-2.728a4.694,4.694,0,0,1-.255-1.812c6.329,3.531,14.936,5.338,16.108,7.289,1.243,2.072,1.823,2.406,1.243,2.322s-11.687-4.973-15.416-5.055c-.744-.018-1.378-.065-1.914-.113Zm15.756-1.676c1.823,1.315,3.232,2.367,3.232,2.367a.782.782,0,0,0,.077.022l-2.727-2c-.191-.139-.385-.269-.582-.391Zm3.658,2.4a1.474,1.474,0,0,0,.9-.527c.663-.746-.829-3.731-4.641-7.377a46.42,46.42,0,0,1-6.522-8.113.975.975,0,0,0-1.233.705,5.222,5.222,0,0,0,.57,3.383c.731,1.115,5.179,4.772,6.745,6.248A40.929,40.929,0,0,1,327.948,332.865Z" transform="translate(-15.405 -14.21)"/>
      <path class="cls-16" d="M210.727,150.328l4.063,12.529s39.959,2.032,49.668-20.092c0,0,5.192,21,25.511,19.19s-3.025-37.657-6.186-39.237-32.287-5.282-36.483-4.109-23.117,3.439-24.924,6.825a16.343,16.343,0,0,0-2.032,8.579C220.344,136.72,210.727,150.328,210.727,150.328Z" transform="translate(-15.405 -14.21)"/>
      <path class="cls-17" d="M210.727,150.328l.9,2.786c17.038,3.1,40.924,2.495,52.722-20.445,0,0,20.792,13.024,33.6,14.1-2.269-11.565-10.838-25.635-12.727-26.579-3.16-1.58-34.634-7.269-38.83-6.1s-27.543,3.838-29.35,7.224a16.347,16.347,0,0,0-2.032,8.58C215.016,132.606,210.727,150.328,210.727,150.328Z" transform="translate(-15.405 -14.21)"/>
      <path class="cls-26" d="M212.973,140.675a60.13,60.13,0,0,1-12.626-1.764q-.086,1.248-.1,2.5a63.8,63.8,0,0,0,11.944,2.709q1.252.161,2.559.279.942.083,1.912.143,1.639.1,3.359.12,1.679.018,3.431-.047a73.863,73.863,0,0,0,13.63-1.833c8.928-2.044,15.086-7.4,19.33-13.922q.945-1.45,1.766-2.969a52.248,52.248,0,0,0,3.048-6.781c.444-1.2.845-2.41,1.208-3.611.141-.462.273-.924.4-1.383a84.648,84.648,0,0,0,2.788-16.7,103.642,103.642,0,0,0-17.19.521,80.844,80.844,0,0,1-.338,15.832c-.007.057-.015.112-.021.169-.206,1.558-.475,3.128-.816,4.686a38.122,38.122,0,0,1-3.555,9.928q-.448.828-.948,1.62c-2.75,4.357-7.637,7.166-13.372,8.782a48.1,48.1,0,0,1-9.075,1.571q-1.34.109-2.691.157l-.514.017C215.719,140.733,214.339,140.726,212.973,140.675Z" transform="translate(-15.405 -14.21)"/>
      <path class="cls-19" d="M159.135,238.646a.808.808,0,0,0,.686-.851,29.262,29.262,0,0,0-.355-6.661,1.689,1.689,0,0,0-1.3-1.3s-5.908,2.311-14.312-.944c0,0-.953.272-1.234.752a25.3,25.3,0,0,0-1.711,6.226.958.958,0,0,0,.5.96A25.681,25.681,0,0,0,159.135,238.646Z" transform="translate(-15.405 -14.21)"/>
      <path class="cls-27" d="M150.49,230.509a25.437,25.437,0,0,1-6.636-1.624s-.953.272-1.234.752a25.3,25.3,0,0,0-1.711,6.226.958.958,0,0,0,.5.96,24.038,24.038,0,0,0,5.642,2C147.88,233.669,149.334,231.456,150.49,230.509Z" transform="translate(-15.405 -14.21)"/>
      <path class="cls-28" d="M263.912,318.791c-1.355,0-1.59-1.467-1.59-1.467l-1.467-14.115a1.314,1.314,0,0,1,.825-1.391c.959-.338,25.155-1.844,45.7,10.281a1.573,1.573,0,0,1,.809,1.346c.059,1,.085,5.785.085,5.955v4.262a.592.592,0,0,1-.55.606C307.411,324.324,283.453,318.1,263.912,318.791Z" transform="translate(-15.405 -14.21)"/>
      <path class="cls-29" d="M242.625,228.439c-.031.575,26.205,1.552,27.574.093.037-.039-.115-.464.035-.4.309.124.52,1.851.348,1.894-4.508,1.106-22.879,1.462-28.6-.34C241.521,229.534,242.657,227.848,242.625,228.439Z" transform="translate(-15.405 -14.21)"/>
      <circle class="cls-30" cx="234.141" cy="217.839" r="1.755"/>
      <circle class="cls-31" cx="231.333" cy="153.319" r="0.334"/>
      <path class="cls-29" d="M250.7,231.08c-.536-.646-1.255.377-1.255.377s-.419-.979-.94-.447c-.656.67.919,1.862.919,1.862S251.3,231.8,250.7,231.08Z" transform="translate(-15.405 -14.21)"/>
    </g>
  </g>
</svg>
