<svg xmlns="http://www.w3.org/2000/svg" xmlns:xlink="http://www.w3.org/1999/xlink" viewBox="0 0 404.408 434.665">
  <defs>
    <style>
      .cls-1 {
        isolation: isolate;
      }

      .cls-2 {
        opacity: 0.5;
        fill: url(#radial-gradient);
      }

      .cls-2, .cls-4, .cls-5 {
        mix-blend-mode: screen;
      }

      .cls-3 {
        fill: url(#radial-gradient-2);
      }

      .cls-4 {
        fill: url(#radial-gradient-3);
      }

      .cls-5 {
        fill: url(#radial-gradient-4);
      }

      .cls-6, .cls-7 {
        opacity: 0.4;
      }

      .cls-6, .cls-7, .cls-8 {
        mix-blend-mode: multiply;
      }

      .cls-6 {
        fill: url(#radial-gradient-5);
      }

      .cls-7 {
        fill: url(#radial-gradient-6);
      }

      .cls-8 {
        opacity: 0.2;
      }

      .cls-9 {
        fill: url(#radial-gradient-7);
      }

      .cls-10 {
        fill: url(#radial-gradient-8);
      }

      .cls-11 {
        fill: url(#radial-gradient-9);
      }

      .cls-12 {
        fill: url(#radial-gradient-10);
      }

      .cls-13 {
        fill: url(#radial-gradient-11);
      }

      .cls-14 {
        fill: url(#radial-gradient-12);
      }

      .cls-15 {
        fill: url(#radial-gradient-13);
      }

      .cls-16 {
        fill: url(#radial-gradient-14);
      }

      .cls-17 {
        fill: url(#radial-gradient-15);
      }

      .cls-18 {
        fill: url(#radial-gradient-16);
      }

      .cls-19 {
        fill: url(#radial-gradient-17);
      }

      .cls-20 {
        fill: url(#radial-gradient-18);
      }

      .cls-21 {
        fill: url(#linear-gradient);
      }

      .cls-22 {
        fill: url(#linear-gradient-2);
      }

      .cls-23 {
        fill: url(#linear-gradient-3);
      }

      .cls-24 {
        fill: url(#linear-gradient-4);
      }

      .cls-25 {
        fill: url(#linear-gradient-5);
      }

      .cls-26 {
        fill: url(#linear-gradient-6);
      }

      .cls-27 {
        fill: url(#linear-gradient-7);
      }

      .cls-28 {
        fill: url(#linear-gradient-8);
      }

      .cls-29, .cls-37 {
        fill: none;
      }

      .cls-29 {
        stroke: #515eff;
        stroke-linecap: round;
        stroke-linejoin: round;
        stroke-opacity: 0;
        stroke-width: 6.66px;
      }

      .cls-30 {
        fill-opacity: 0.76;
        fill: url(#linear-gradient-9);
      }

      .cls-31 {
        fill: #ffb9a9;
      }

      .cls-32 {
        fill: #f2819f;
      }

      .cls-33 {
        fill: #eeebf4;
      }

      .cls-34 {
        fill: #54c6e0;
      }

      .cls-35 {
        fill: #f39e4b;
      }

      .cls-36 {
        fill: #ffc05c;
      }

      .cls-37 {
        stroke: #231f20;
        stroke-miterlimit: 10;
      }

      .cls-38 {
        fill: #403379;
      }

      .cls-39 {
        fill: #f7937c;
      }

      .cls-40 {
        fill: #17a4c0;
      }

      .cls-41 {
        fill: #302864;
      }

      .cls-42 {
        fill: #29215d;
      }

      .cls-43 {
        fill: #fff;
      }

      .cls-44 {
        fill: #a82f55;
      }

      .cls-45 {
        fill: url(#linear-gradient-10);
      }

      .cls-46 {
        fill: url(#linear-gradient-11);
      }
    </style>
    <radialGradient id="radial-gradient" cx="202.204" cy="228.263" r="202.204" gradientUnits="userSpaceOnUse">
      <stop offset="0.022" stop-color="#ff3a9c"/>
      <stop offset="0.474" stop-color="#ff3a9c"/>
      <stop offset="0.837" stop-color="#ff3e9c" stop-opacity="0.5"/>
      <stop offset="1" stop-color="#ff7f9a" stop-opacity="0"/>
    </radialGradient>
    <radialGradient id="radial-gradient-2" cx="145.696" cy="106.522" r="341.919" gradientUnits="userSpaceOnUse">
      <stop offset="0.059" stop-color="#ff7f9a"/>
      <stop offset="0.526" stop-color="#ff3a9c"/>
      <stop offset="0.993" stop-color="#d10059"/>
    </radialGradient>
    <radialGradient id="radial-gradient-3" cx="175.333" cy="147.513" r="306.251" xlink:href="#radial-gradient-2"/>
    <radialGradient id="radial-gradient-4" cx="86.782" cy="241.598" r="306.254" gradientTransform="translate(-123.496 128.054) rotate(-45)" xlink:href="#radial-gradient-2"/>
    <radialGradient id="radial-gradient-5" cx="270.076" cy="290.172" r="283.477" gradientUnits="userSpaceOnUse">
      <stop offset="0.007" stop-color="#d10059"/>
      <stop offset="1" stop-color="#682980"/>
    </radialGradient>
    <radialGradient id="radial-gradient-6" cx="251.598" cy="158.905" r="283.489" gradientTransform="matrix(0.643, 0.766, -0.766, 0.643, 208.706, 2.135)" xlink:href="#radial-gradient-5"/>
    <radialGradient id="radial-gradient-7" cx="188.84" cy="154.553" r="61.506" xlink:href="#radial-gradient-5"/>
    <radialGradient id="radial-gradient-8" cx="195.727" cy="137.57" r="33.756" xlink:href="#radial-gradient-5"/>
    <radialGradient id="radial-gradient-9" cx="205.451" cy="360.059" r="79.008" xlink:href="#radial-gradient-5"/>
    <radialGradient id="radial-gradient-10" cx="287.511" cy="411.995" r="46.493" xlink:href="#radial-gradient-5"/>
    <radialGradient id="radial-gradient-11" cx="287.557" cy="202.089" r="96.689" xlink:href="#radial-gradient-5"/>
    <radialGradient id="radial-gradient-12" cx="169.424" cy="365.197" r="34.353" xlink:href="#radial-gradient-5"/>
    <radialGradient id="radial-gradient-13" cx="299.207" cy="423.18" r="19.87" xlink:href="#radial-gradient-5"/>
    <radialGradient id="radial-gradient-14" cx="392.482" cy="294.299" r="18.688" xlink:href="#radial-gradient-5"/>
    <radialGradient id="radial-gradient-15" cx="372.382" cy="300.412" r="39.796" xlink:href="#radial-gradient-5"/>
    <radialGradient id="radial-gradient-16" cx="93.615" cy="279.584" r="9.16" xlink:href="#radial-gradient-5"/>
    <radialGradient id="radial-gradient-17" cx="337.802" cy="176.03" r="31.496" xlink:href="#radial-gradient-5"/>
    <radialGradient id="radial-gradient-18" cx="117.151" cy="268.177" r="39.079" xlink:href="#radial-gradient-5"/>
    <linearGradient id="linear-gradient" x1="201.209" y1="368.055" x2="226.089" y2="368.055" gradientTransform="matrix(0.984, -0.181, -0.181, -0.984, 79.745, 529.46)" gradientUnits="userSpaceOnUse">
      <stop offset="0.014" stop-color="#1a52a4"/>
      <stop offset="1" stop-color="#98fffb"/>
    </linearGradient>
    <linearGradient id="linear-gradient-2" x1="229.877" y1="408.518" x2="236.535" y2="408.518" gradientTransform="matrix(0.942, -0.336, -0.336, -0.942, 153.825, 536.116)" gradientUnits="userSpaceOnUse">
      <stop offset="0" stop-color="#3529da"/>
      <stop offset="0.974" stop-color="#7fdbf4"/>
    </linearGradient>
    <linearGradient id="linear-gradient-3" x1="228.976" y1="421.975" x2="253.903" y2="421.975" gradientTransform="matrix(0.942, -0.336, -0.336, -0.942, 152.472, 544.034)" gradientUnits="userSpaceOnUse">
      <stop offset="0.01" stop-color="#7fffe7"/>
      <stop offset="0.998" stop-color="#0ff1ff"/>
    </linearGradient>
    <linearGradient id="linear-gradient-4" x1="240.96" y1="105.863" x2="270.6" y2="105.863" gradientTransform="matrix(0.942, -0.336, 0.416, 1.166, -50.92, 39.441)" gradientUnits="userSpaceOnUse">
      <stop offset="0.006" stop-color="#58dff1"/>
      <stop offset="1" stop-color="#464657"/>
    </linearGradient>
    <linearGradient id="linear-gradient-5" x1="192.633" y1="420.703" x2="259.712" y2="420.703" gradientTransform="matrix(0.942, -0.336, -0.336, -0.942, 150.717, 553.499)" gradientUnits="userSpaceOnUse">
      <stop offset="0" stop-color="#9882ff"/>
      <stop offset="0.98" stop-color="#03e6fa"/>
    </linearGradient>
    <linearGradient id="linear-gradient-6" x1="246.142" y1="417.77" x2="252.801" y2="417.77" gradientTransform="matrix(0.942, -0.336, -0.336, -0.942, 150.048, 546.535)" gradientUnits="userSpaceOnUse">
      <stop offset="0" stop-color="#2e29da"/>
      <stop offset="1" stop-color="#7ff1f4"/>
    </linearGradient>
    <linearGradient id="linear-gradient-7" x1="190.009" y1="391.836" x2="208.363" y2="391.836" gradientTransform="matrix(0.942, -0.336, -0.336, -0.942, 150.717, 553.499)" xlink:href="#linear-gradient-6"/>
    <linearGradient id="linear-gradient-8" x1="197.924" y1="346.558" x2="249.085" y2="346.558" gradientTransform="matrix(0.984, -0.181, -0.181, -0.984, 79.219, 534.927)" gradientUnits="userSpaceOnUse">
      <stop offset="0" stop-color="#4517a5"/>
      <stop offset="0.998" stop-color="#b0feec"/>
    </linearGradient>
    <linearGradient id="linear-gradient-9" x1="165.059" y1="116.747" x2="235.187" y2="104.322" gradientUnits="userSpaceOnUse">
      <stop offset="0.685" stop-color="#7ff1f4"/>
      <stop offset="1" stop-color="#2e29da"/>
    </linearGradient>
    <linearGradient id="linear-gradient-10" x1="166.439" y1="23.218" x2="180.226" y2="90.622" xlink:href="#linear-gradient-9"/>
    <linearGradient id="linear-gradient-11" x1="192.861" y1="130.432" x2="260.16" y2="130.432" gradientUnits="userSpaceOnUse">
      <stop offset="0" stop-color="#662d91"/>
      <stop offset="0.084" stop-color="#574ba4"/>
      <stop offset="0.198" stop-color="#466dba"/>
      <stop offset="0.315" stop-color="#3888cb"/>
      <stop offset="0.434" stop-color="#2f9bd7"/>
      <stop offset="0.555" stop-color="#29a6df"/>
      <stop offset="0.685" stop-color="#27aae1"/>
    </linearGradient>
  </defs>
  <title>teacher new</title>
  <g class="cls-1">
    <g id="OBJECTS">
      <g>
        <circle class="cls-2" cx="202.204" cy="228.263" r="202.204"/>
        <circle class="cls-3" cx="202.204" cy="228.263" r="161.575"/>
        <path class="cls-4" d="M113.813,290.137A161.544,161.544,0,0,1,355.986,150.122a161.547,161.547,0,1,0-186.71,261.805A161.152,161.152,0,0,1,113.813,290.137Z" transform="translate(-47.669 -43.649)"/>
        <path class="cls-5" d="M166.051,381.876a161.544,161.544,0,0,1,72.237-270.247,161.546,161.546,0,1,0,53.1,317.148A161.152,161.152,0,0,1,166.051,381.876Z" transform="translate(-47.669 -43.649)"/>
        <path class="cls-6" d="M377.247,172.564A161.539,161.539,0,0,1,92.534,308.605,161.562,161.562,0,1,0,377.247,172.564Z" transform="translate(-47.669 -43.649)"/>
        <path class="cls-7" d="M407.734,303.465a161.539,161.539,0,0,1-287.249-130.6,161.562,161.562,0,1,0,287.249,130.6Z" transform="translate(-47.669 -43.649)"/>
        <g class="cls-8">
          <path class="cls-9" d="M141.121,197.594a88.11,88.11,0,0,0,26.1.232,102.315,102.315,0,0,0,45.46-17.769c2.8-1.933,5.127-3.957,7.231-5.719l2.945-2.473,2.323-2.263,4.378-4.336s.373-.416,1.023-1.23l2.838-3.511c1.241-1.5,2.707-3.345,4.223-5.555,1.538-2.195,3.382-4.616,5.1-7.4,6.559-9.862,13.737-23.229,21.059-36.6q-5.169-.441-10.428-.549c-7.275,11.556-14.084,22.561-20.057,30.638-1.769,2.576-3.591,4.729-5.123,6.717-1.514,2.008-2.942,3.639-4.139,4.958l-2.735,3.1c-.624.722-.978,1.084-.978,1.084l-3.777,4.07-2,2.141-2.525,2.315c-1.8,1.657-3.8,3.584-6.181,5.406a96.056,96.056,0,0,1-40.061,18.3,85.348,85.348,0,0,1-23.746,1.554,55.331,55.331,0,0,1-19.855-5.37,36.911,36.911,0,0,1-6.2-3.9c-.728,1.074-1.408,2.182-2.11,3.275a35.891,35.891,0,0,0,5.869,4.8A56.549,56.549,0,0,0,141.121,197.594Z" transform="translate(-47.669 -43.649)"/>
          <path class="cls-10" d="M157.36,149.564a20.994,20.994,0,0,0,4.316,7.815,19.243,19.243,0,0,0,8.039,5.414c6.358,2.111,12.286,1.355,17.64.17a45.649,45.649,0,0,0,13.652-5.931,61.7,61.7,0,0,0,8.2-6.215c1.837-1.636,2.808-2.629,2.808-2.629a91.068,91.068,0,0,0,8.323-10.863c2.243-3.359,4.67-7.4,7.02-11.712,2.341-4.273,4.736-8.8,7.232-13.195.263-.473.537-.935.8-1.4q-5.831.518-11.54,1.435c-1.834,2.668-3.619,5.309-5.3,7.8-2.659,3.955-5.194,7.451-7.49,10.35a85.72,85.72,0,0,1-8.05,9.01s-.773.9-2.2,2.382a52.784,52.784,0,0,1-6.264,5.575,36.225,36.225,0,0,1-10.042,5.486c-3.882,1.312-8.6,2.176-12.234,1.328-3.711-.809-6.659-3.506-8.412-7.276a34.041,34.041,0,0,1-2.6-10.281q-2.642,1.737-5.2,3.58A33.031,33.031,0,0,0,157.36,149.564Z" transform="translate(-47.669 -43.649)"/>
          <path class="cls-11" d="M180.059,410.413c.457-6.257,3.871-11.695,9.211-15.8,5.3-4.133,11.977-7.055,18.866-9.453,14.11-4.517,28.843-8.909,42.321-13.12,13.379-4.1,27.044-8.074,37.211-16.272,5.027-4.142,8.965-8.7,11.273-14.347a32.9,32.9,0,0,0,.17-23.614,15.622,15.622,0,0,0-1-2.35l-.4-.792a16.9,16.9,0,0,0-1.884-2.983,21.93,21.93,0,0,0-7.862-6.853c-4.082-2.267-10.373-3-15.69-1.616-2.678.6-5.183,1.474-7.56,2.247a59.837,59.837,0,0,1-7.193,1.864c-10.193,2.127-23.1,1.259-37.61,1.088a101.287,101.287,0,0,0-22.891,2.18,70.358,70.358,0,0,0-21.949,9.767c-13.191,8.581-24.089,19.021-36.283,24.967a68.93,68.93,0,0,1-29.1,6.871c1.036,1.8,2.1,3.591,3.2,5.351a72.479,72.479,0,0,0,28.838-5.919c13.748-6,25.473-16.39,37.967-23.788a61.718,61.718,0,0,1,19.4-7.88,92.867,92.867,0,0,1,20.64-1.241c13.805.552,27.564,2.012,39.817-.12a71.518,71.518,0,0,0,8.626-1.985c2.562-.765,4.727-1.434,6.567-1.786,3.7-.74,5.827-.127,7.546.777a9.87,9.87,0,0,1,3.485,3.28,7.81,7.81,0,0,1,.972,1.636,10.066,10.066,0,0,1,.857,1.793,19.568,19.568,0,0,1,1.4,5.711,20.1,20.1,0,0,1-1.1,9.031c-1.022,2.979-3.855,6.761-7.513,9.869a56.742,56.742,0,0,1-14.306,8.426c-5.661,2.447-12.075,4.56-18.821,6.889-13.474,4.682-27.613,9.407-42.152,14.668-7.258,2.852-14.575,6.29-20.862,11.6a33.454,33.454,0,0,0-7.914,9.571,27.236,27.236,0,0,0-3.206,11.858c-.057,1.44-.031,2.832.02,4.2q3.354,1.813,6.8,3.475A52.976,52.976,0,0,1,180.059,410.413Z" transform="translate(-47.669 -43.649)"/>
          <path class="cls-12" d="M255.493,413.643l2.179-1.349,2.261-1.139a67.305,67.305,0,0,1,17.366-5.814,91.154,91.154,0,0,1,13.106-1.513c3.209-.138,5.059-.12,5.059-.12a146.07,146.07,0,0,1,18.648.268c5.641.369,12.252,1.122,19.357,2.147,1.684.235,3.428.5,5.208.754q5.8-3.825,11.235-8.133c-4.873-.676-9.786-1.772-14.655-2.775-7.227-1.5-14.073-2.679-20.026-3.394a149.773,149.773,0,0,0-20.1-1.3s-2.036.07-5.6.4a99.48,99.48,0,0,0-14.725,2.481,76.292,76.292,0,0,0-19.813,7.948l-2.562,1.509-2.469,1.743a51.124,51.124,0,0,0-4.852,3.733,91.416,91.416,0,0,0-8.616,8.609c-3.953,4.628-7.777,9.322-11.377,13.9,3,.462,6.038.826,9.094,1.12,2.826-2.982,5.718-5.987,8.648-8.953a86.439,86.439,0,0,1,8.287-7.216A42.863,42.863,0,0,1,255.493,413.643Z" transform="translate(-47.669 -43.649)"/>
          <path class="cls-13" d="M295.02,148.253a207.744,207.744,0,0,1-14.074,15.358,203.25,203.25,0,0,1-35.371,27.89,198.345,198.345,0,0,1-20.053,10.92c-6.8,3.225-13.925,6.1-20.715,9.771s-13.262,8.06-18.273,14.01a41.011,41.011,0,0,0-9.387,19.6,29.025,29.025,0,0,0,3.327,19.306,30.919,30.919,0,0,0,10.689,10.808,41.284,41.284,0,0,0,8.5,3.928l3.1.895s1.089.246,3.134.625a57.846,57.846,0,0,0,8.849.8,61.83,61.83,0,0,0,13.56-1.256,97.664,97.664,0,0,0,34.16-14.083c6.035-3.913,11.615-8.861,17.09-13.537,5.5-4.673,11.126-9.17,17.417-11.943,6.22-2.77,13.48-3.624,21.086-3.779,7.607-.187,15.585.223,23.67-.606a81.006,81.006,0,0,0,22.87-6.03c14.032-5.946,25.043-14.784,33.782-22.71-.662-1.542-1.362-3.063-2.071-4.58-.305.251-.594.5-.9.75-9.022,7.227-20.121,15.18-33.383,20.084a74.948,74.948,0,0,1-20.958,4.605c-7.3.469-15.005-.2-23.053-.3-7.993-.118-16.669.459-24.736,3.718-7.983,3.228-14.465,8.227-20.273,12.838-5.824,4.684-11.045,9.019-16.424,12.284A86.956,86.956,0,0,1,226.1,269.242a50.077,50.077,0,0,1-11.028.745,45.879,45.879,0,0,1-6.96-.792c-1.557-.333-2.374-.529-2.374-.529l-2.321-.607a29.365,29.365,0,0,1-5.974-2.579,19,19,0,0,1-6.716-6.361,17.271,17.271,0,0,1-2.25-11.615,30,30,0,0,1,6.493-14.348c3.542-4.508,8.837-8.494,14.859-11.959,6.033-3.514,12.914-6.566,19.936-10.17a202.339,202.339,0,0,0,20.588-12.146,203.057,203.057,0,0,0,35.584-30.431,199.883,199.883,0,0,0,13.748-16.542,87.506,87.506,0,0,0,10.151-16.629,61.19,61.19,0,0,0,4.042-11.742c-1.232-.532-2.48-1.032-3.727-1.534a56.166,56.166,0,0,1-4.651,11.128A86.422,86.422,0,0,1,295.02,148.253Z" transform="translate(-47.669 -43.649)"/>
          <path class="cls-14" d="M193.041,363.866l6.308-5.079c.5-.409.961-.774,1.587-1.337.279-.241.541-.494,1.04-.99.408-.415.768-.848,1.147-1.27a22.2,22.2,0,0,0,3.433-5.284,12,12,0,0,0,.461-9.332,12.643,12.643,0,0,0-2.13-3.291l-2.446-1.353-1.05-.589c-.5-.005-1.008.036-1.46.049l-2.335.1c-1.274.061-1.96.1-1.96.1l-2.056.426-2.455.51c-.436.1-1.1.207-1.446.324l-1.015.35a48.779,48.779,0,0,0-10.882,5.258c-8.356,5.124-17.025,14.063-25.039,22.422-6.92,7.068-14.6,13.2-21.643,16.541,1.357,1.471,2.733,2.926,4.143,4.345,7.836-2.838,16.162-8.25,23.434-14.4,9.115-7.889,17.741-15.355,24.907-19.03a38.014,38.014,0,0,1,8.632-3.485l.734-.207c.2-.057.067,0,.115-.01l.013.037,0,.034s-.01-.046.109-.145a.267.267,0,0,1,.47.2.8.8,0,0,1-.055.287,7.948,7.948,0,0,1-1.5,1.566l-5.745,5.415c-4.021,3.72-8.38,7.621-12.814,11.447C161.827,377.707,149.4,387.1,142.6,392.7c.9.8,1.8,1.578,2.719,2.355a267.894,267.894,0,0,0,33.636-20.662C183.835,370.931,188.625,367.336,193.041,363.866Z" transform="translate(-47.669 -43.649)"/>
          <path class="cls-15" d="M304.768,416.444s-3.441.635-8.868,2.019c-5.331,1.421-13.063,3.816-19.332,9.192a29.094,29.094,0,0,0-4.082,4.224,160.447,160.447,0,0,0,53.441-17.4C314.521,415.424,304.768,416.444,304.768,416.444Z" transform="translate(-47.669 -43.649)"/>
          <path class="cls-16" d="M404.839,276.812a54.229,54.229,0,0,0-15.171,7.26,61.967,61.967,0,0,0-7.189,5.664c-1.071,1-2.11,1.983-3.032,2.974l-.691.726a15.076,15.076,0,0,0-1,1.23l-1.959,2.549a10.505,10.505,0,0,0-1.95,8.5,9.4,9.4,0,0,0,.908,2.312,6.859,6.859,0,0,0,.455.748,8.175,8.175,0,0,0,2.478,2.144,11.734,11.734,0,0,0,3.725,1.391c1.633.233,3.652.328,5.572.489a80.31,80.31,0,0,0,16.866-1.386c.973-.208,1.928-.5,2.889-.773q1.028-4.179,1.83-8.443a40,40,0,0,1-5.761.486,93.033,93.033,0,0,1-14.9-1.3c-.5-.357.006-.5-.07-.5a.335.335,0,0,1-.5-.152.657.657,0,0,1-.026-.171c.018-.057-.048-.016.063-.183l.481-.69c.636-.947,1.375-1.9,2.132-2.9a66.469,66.469,0,0,1,5.236-5.914,85.658,85.658,0,0,1,11.666-9.688c1.832-1.287,3.374-2.338,4.4-3.173.027-.733.038-1.469.056-2.2A21.08,21.08,0,0,0,404.839,276.812Z" transform="translate(-47.669 -43.649)"/>
          <path class="cls-17" d="M390.246,268.779c-6.732,2.279-13.848,4.08-20.612,6.351a78.365,78.365,0,0,0-18.31,8.462,44.76,44.76,0,0,0-6.76,5.429,47.092,47.092,0,0,0-4.381,5.127,39.187,39.187,0,0,0-2.368,3.662l-.774,1.344-.623,1.431a36.865,36.865,0,0,0-1.538,4.151A31.149,31.149,0,0,0,334.2,321a24.954,24.954,0,0,0,5.125,10.1,26.282,26.282,0,0,0,9.9,7.294c7.757,3.3,16.361,3.2,24.181,1.364,8.026-1.911,14.721-5.849,20.684-9.42,2.931-1.8,5.7-3.546,8.32-5.153q1.3-3.732,2.427-7.544c-4.449,1.844-9.18,4.2-14.076,6.6-6.113,2.936-12.636,5.93-19.089,6.9-6.51,1.045-13.312.415-18.143-2.115a14.811,14.811,0,0,1-8.152-10.525,19.818,19.818,0,0,1,1.08-9.995,25.326,25.326,0,0,1,1.207-2.782l.474-.971.5-.968a27.7,27.7,0,0,1,1.543-2.689,30.4,30.4,0,0,1,7.67-8.093,69.807,69.807,0,0,1,15.352-8.2c6.154-2.53,13.173-4.833,20.173-7.807a124.776,124.776,0,0,0,17.956-9.381q-.1-3.932-.391-7.815A134.2,134.2,0,0,1,390.246,268.779Z" transform="translate(-47.669 -43.649)"/>
          <path class="cls-18" d="M97.625,285.577a10.375,10.375,0,0,0,.911-7.9,13.249,13.249,0,0,0-3.039-5.2c-.8-.888-1.173-1.227-1.173-1.227a53.049,53.049,0,0,0-5.921-3.474c-.035,1.38-.1,2.752-.1,4.141A162.946,162.946,0,0,0,89.509,291.4a12.365,12.365,0,0,0,1.466-.361,11.5,11.5,0,0,0,1.843-.783,12.592,12.592,0,0,0,1.91-1.267A11.468,11.468,0,0,0,97.625,285.577Z" transform="translate(-47.669 -43.649)"/>
          <path class="cls-19" d="M320,196.937a19.736,19.736,0,0,1,1-2.256c.722-1.274,1.236-2.011,1.236-2.011a46.334,46.334,0,0,1,5.559-7.955c1.974-2.441,4.467-5.176,7.229-8.6a104.725,104.725,0,0,0,7.639-10.982A113.048,113.048,0,0,0,351.72,146.5q-2.191-1.781-4.441-3.49a167.819,167.819,0,0,1-11.84,17.109,113.034,113.034,0,0,1-8.137,9.163l-8,7.739a69.654,69.654,0,0,0-5.723,6.416,22.744,22.744,0,0,0-3.624,6.1,30.218,30.218,0,0,0-1.387,4.185,8.672,8.672,0,0,0-.324,1.762l-.265,2.069a33.39,33.39,0,0,0,.045,4.313l.916,4.3q.259,1.12.526,2.277l.067.288c.05.063.182.027.27.045l.59.032,1.188.063a32.88,32.88,0,0,0,4.924.087l5.115-.458c4.176-.535,8.6-1.289,12.975-2.229,17.622-3.6,33.748-11.267,33.083-12.878-.591-1.574-17.375,2.963-34.385,4.183-4.242.352-8.483.572-12.453.644a2.474,2.474,0,0,1-1.223-.234c-.189-.045.036-.491.068-.586C319.8,197.162,319.8,197.35,320,196.937Z" transform="translate(-47.669 -43.649)"/>
          <path class="cls-20" d="M93.535,243.165c3.085,7.186,8.457,13.6,14.778,16.809a37.681,37.681,0,0,0,15.466,3.946c3.641.2,5.61.109,5.61.109l.891-.052a.086.086,0,0,1,.043-.046.1.1,0,0,1,.1-.028c.024.012.049.032.063-.03l.007,0,.044.276.09.569q.034.587.071,1.216a35.629,35.629,0,0,1-1.423,12.441c-2.575,9.573-10.3,20.47-21.15,26.483a57.1,57.1,0,0,1-15.084,5.958c.538,2.175,1.133,4.326,1.758,6.466a61.191,61.191,0,0,0,17.109-5.126,53.917,53.917,0,0,0,27.761-30.365,46.635,46.635,0,0,0,2.841-16.252q-.006-.862-.011-1.669-.088-.949-.171-1.83a33.3,33.3,0,0,0-.724-4.634l-1.3-6.508-10.136.667-1.251.044s-1.773.154-4.679.143a26.753,26.753,0,0,1-10.786-2.013c-3.87-1.676-7.759-5.483-10.6-10.994-2.9-5.528-4.548-12.241-5.645-19.537-.007-.043-.013-.087-.02-.129a160.232,160.232,0,0,0-5.4,19.387A47.535,47.535,0,0,0,93.535,243.165Z" transform="translate(-47.669 -43.649)"/>
        </g>
      </g>
      <path class="cls-21" d="M211.554,128.526l0,5.04,23.665-4.478-.1-4.961Z" transform="translate(-47.669 -43.649)"/>
      <path class="cls-22" d="M237.445,86.428,233.2,60.171l1.721-.626,4.467,26.189Z" transform="translate(-47.669 -43.649)"/>
      <path class="cls-23" d="M226.29,69.555c3.932-.48,8.335-.875,12.213-1.64,6.593-1.3,11.67-3.667,10.34-9.332l-.827.3c1.191,8.026-14.467,7.573-21.891,8.136Z" transform="translate(-47.669 -43.649)"/>
      <g id="Layer_4" data-name="Layer 4">
        <path class="cls-24" d="M189.756,100.868c2.333-39.65,67.945-15.441,65.087-38.862l1.513-1.086c-1.093,27.039-62.755,5.765-64.21,37.5Z" transform="translate(-47.669 -43.649)"/>
        <path class="cls-25" d="M189.644,101.147c6.739-38.426,64.732-9.378,66.717-40.243l-.546,1.59c-8.292,22.636-56.555.071-63.681,35.953Z" transform="translate(-47.669 -43.649)"/>
        <path class="cls-26" d="M245.878,82.666l-4.243-26.257,1.721-.626,4.467,26.189Z" transform="translate(-47.669 -43.649)"/>
        <path class="cls-27" d="M198.329,91.767l6.753-5.929L215.525,146.5l-7.327,2.685Z" transform="translate(-47.669 -43.649)"/>
      </g>
      <path class="cls-28" d="M211.885,153.932l.049,8.561,48.907-9.148-.059-8.478" transform="translate(-47.669 -43.649)"/>
      <path class="cls-29" d="M229.286,46.979c83.269,45.867,156.828,51.534,207.953,3.1" transform="translate(-47.669 -43.649)"/>
      <path class="cls-30" d="M211.022,112.638l34.361-7.6.451-6.642-35.9,8.242Z" transform="translate(-47.669 -43.649)"/>
      <path class="cls-31" d="M271.887,229.17c-1.6,2.9-8.649,7.363-17.04,10.376a57.953,57.953,0,0,1-10.016,2.653,73.307,73.307,0,0,1-16.032.586c-7.723-.5-14.5-2.016-16.516-3.856-3.394-3.1-13.646-80.882-13.76-82.949s22.233-7.548,30.656-8.926,31.355-3.311,31.91-1.316S274.119,225.159,271.887,229.17Z" transform="translate(-47.669 -43.649)"/>
      <path class="cls-31" d="M255.536,245.284A91.286,91.286,0,0,1,245,266.366a45.3,45.3,0,0,1-16.2-15.775v-7.805a73.307,73.307,0,0,0,16.032-.586,57.953,57.953,0,0,0,10.016-2.653l.319,2.622.206,1.759Z" transform="translate(-47.669 -43.649)"/>
      <path class="cls-32" d="M259.022,307.172v.01c-1.645,14.952-3.486,21.74-3.486,21.74-3.723-5.9-7.1-11.888-10.078-17.575v-.01l-1.6-31.242a37.705,37.705,0,0,0,6.273-.607Z" transform="translate(-47.669 -43.649)"/>
      <path class="cls-33" d="M265.1,278.017c-.309-.216-.607-.442-.915-.658-1-.7-2-1.368-2.972-2.016-2.746-1.8-5.4-3.363-7.733-4.669-4.946-2.756-8.484-4.309-8.484-4.309a91.286,91.286,0,0,0,10.541-21.082l-.165-1.357,1.193-.535,6.859,4.545c.093.473.175.936.257,1.409A132.281,132.281,0,0,1,265.1,278.017Z" transform="translate(-47.669 -43.649)"/>
      <path class="cls-34" d="M261.213,275.344c-.463,13.163-1.3,23.7-2.19,31.828l-8.9-27.684a2.97,2.97,0,0,0,.648-.185c.247-.206,2.036-6.3,2.7-8.628C255.814,271.981,258.467,273.544,261.213,275.344Z" transform="translate(-47.669 -43.649)"/>
      <path class="cls-32" d="M253.479,270.675c-.668,2.324-2.458,8.422-2.7,8.628a2.97,2.97,0,0,1-.648.185,37.705,37.705,0,0,1-6.273.607,2.08,2.08,0,0,1-.7-.1c-.771-.339-3.723-5.173-4.926-7.188,2.17-2.16,4.484-4.381,6.767-6.438C245,266.366,248.533,267.919,253.479,270.675Z" transform="translate(-47.669 -43.649)"/>
      <path class="cls-34" d="M245.458,311.337a318.794,318.794,0,0,1-14.315-31.211c1.913-2.036,4.381-4.628,7.085-7.322,1.2,2.016,4.155,6.849,4.926,7.188a2.08,2.08,0,0,0,.7.1Z" transform="translate(-47.669 -43.649)"/>
      <path class="cls-33" d="M245,266.366c-2.283,2.057-4.6,4.278-6.767,6.438-2.7,2.694-5.173,5.286-7.085,7.322-1.069,1.131-1.954,2.1-2.6,2.818-.8.864-1.244,1.368-1.244,1.368A76.292,76.292,0,0,1,221,256.535c-.021-.967,0-1.481,0-1.481l6.427-7.116H228.8v2.653A45.3,45.3,0,0,0,245,266.366Z" transform="translate(-47.669 -43.649)"/>
      <path class="cls-35" d="M306.1,391.262a29.048,29.048,0,0,1-1.471,7.754,137.992,137.992,0,0,1-101.295,3.157,65.6,65.6,0,0,1,3.784-8.978c1.028-1.543-1.368-9.944-1.368-14.4,0-.391-.041-1.286-.1-2.591-.237-4.494-.833-13.863-1.532-24.414-.185-2.766-.37-5.615-.566-8.484-.165-2.273-.319-4.545-.473-6.8-1.131-16.2-2.231-31.149-2.468-32.527-.473-2.756-4.772-28.136-5.142-32.785a2.394,2.394,0,0,1,0-.72c.422-.607,7.795-2.664,9.512-3.26,1.471-.514,12.916-8.515,16.022-10.685a76.292,76.292,0,0,0,6.294,27.776s.442-.5,1.244-1.368a297.1,297.1,0,0,0,15.785,34.163c.442.8.884,1.6,1.337,2.406.206.35.4.7.607,1.049,2.077,3.6,4.278,7.127,6.561,10.417,1.2,1.717,2.417,3.373,3.651,4.936,0,0,.627-1.522,1.532-4.669.689-2.365,1.522-5.666,2.345-9.944.072-.329.134-.668.206-1.008.134-.74.278-1.522.411-2.324a246.529,246.529,0,0,0,3.208-40.61c.309.216.607.442.915.658a132.277,132.277,0,0,0-1.419-28.671c2.468.967,8.083,3.116,10.2,3.651,2.735.679,11.734,1.8,12.248,2.139a2.859,2.859,0,0,1,.288.812c1.141,4.144,4.864,22.984,5.625,29.268.638,5.2,2.725,22.418,3.908,36.3.206,2.4.38,4.689.524,6.808.144,2.19.236,4.2.288,5.913.339,13.019.679,39.417.854,40.785a45.734,45.734,0,0,0,2.962,7.5C300.956,383.169,306.1,387.8,306.1,391.262Z" transform="translate(-47.669 -43.649)"/>
      <path class="cls-36" d="M264.185,277.359c-.206,40.59-7.7,58.555-7.7,58.555-13.441-17.04-24.609-44.364-27.941-52.971.648-.72,1.532-1.687,2.6-2.818a318.794,318.794,0,0,0,14.315,31.211v.01c2.982,5.687,6.355,11.672,10.078,17.575,0,0,1.841-6.787,3.486-21.74v-.01c.895-8.124,1.728-18.665,2.19-31.828C262.19,275.992,263.187,276.66,264.185,277.359Z" transform="translate(-47.669 -43.649)"/>
      <g>
        <rect class="cls-33" x="205.738" y="325.041" width="72.977" height="56.981" rx="1.831" ry="1.831" transform="translate(-171.064 533.441) rotate(-87.026)"/>
        <rect class="cls-34" x="208.083" y="326.872" width="68.287" height="53.319" rx="1.713" ry="1.713" transform="translate(-171.064 533.441) rotate(-87.026)"/>
        <rect class="cls-33" x="209.094" y="327.662" width="66.263" height="51.739" rx="1.662" ry="1.662" transform="translate(-171.064 533.441) rotate(-87.026)"/>
        <rect class="cls-34" x="224.884" y="330.49" width="36.62" height="8.787" transform="translate(-29.97 -55.814) rotate(2.974)"/>
      </g>
      <path class="cls-36" d="M203.079,336.511c-1.779-8.721-6.87-33.6-8.217-38.523-1.193-4.391-3.6-15.456-4.638-21.215a15.343,15.343,0,0,1-.473-3.61c.36-.288,4.391-1.543,5.718-1.964.37,4.648,4.669,30.029,5.142,32.785C200.847,305.362,201.948,320.314,203.079,336.511Z" transform="translate(-47.669 -43.649)"/>
      <path class="cls-36" d="M295.951,288.939v32.579c-1.183-13.883-3.27-31.1-3.908-36.3-.761-6.283-4.484-25.123-5.625-29.268,1.6.144,5.81.555,6.571,1.244a8.378,8.378,0,0,1,.566,2.633C294.573,267.148,295.951,287.17,295.951,288.939Z" transform="translate(-47.669 -43.649)"/>
      <path class="cls-33" d="M199.8,349.942s-2.386-.2-3.1-.2-7.147,2.139-8.69,4.031-7.888,15.847-7.888,17.739.35,5.08.35,5.08l6.592,2.715s-10.86,2.375-11.826,1.162-10.993-14.274-10.8-17.163c.072-.977,1.8-3.209,4.113-5.749,4.587-5.029,11.487-11.281,12.34-11.415,1.285-.2,3.795,1.409,4.432,1.285s7.97-1.738,9.512-1.861c1.337-.113,4.062,3.239,4.782,4.144l.01.01C199.737,349.86,199.8,349.942,199.8,349.942Z" transform="translate(-47.669 -43.649)"/>
      <path class="cls-34" d="M203.552,343.309c-.74,1.985-2.211,5.872-2.406,6.119s-1.08.278-1.522.288c-.72-.9-3.445-4.257-4.782-4.144-1.543.123-8.865,1.738-9.512,1.861s-3.147-1.481-4.432-1.285c-.854.134-7.754,6.386-12.34,11.415a6.662,6.662,0,0,1-.257-1.45c.062-.391,5.337-13.009,6.427-16.567s7.97-34.4,8.35-36.723c.391-2.3,1.1-18.572,1.676-19.92.463-1.09,4.124-4.782,5.471-6.129,1.039,5.759,3.445,16.824,4.638,21.215,1.347,4.926,6.438,29.8,8.217,38.523C203.233,338.763,203.387,341.036,203.552,343.309Z" transform="translate(-47.669 -43.649)"/>
      <path class="cls-37" d="M199.634,349.726l-.01-.01" transform="translate(-47.669 -43.649)"/>
      <path class="cls-31" d="M265.326,353.675c-.072.01-.134.031-.2.041l.031.473c1.069-.175,5.512-.895,7.579-1.08l.021-.01c.555-.051.341.194.434.245.514.257.689,4.874.3,5.358a16.925,16.925,0,0,1-3.529,1.195.079.079,0,0,1-.031.01c-1.687.494-3.4.977-4.134,1.172l.01.072c.874-.093,2.972-.308,4.587-.411a8.218,8.218,0,0,1,2.067-.021c.483.257-.257,4.895-.514,5.183a3.052,3.052,0,0,1-1.224.452s.617.216.617.607-.555,3.527-1.07,3.723c-.339.123-3.4.37-5.5.524-1.141.082-1.995.134-1.995.134s-22.655,1.8-23.735,1.676a24.344,24.344,0,0,1-4.278-1.676l-47.7,7.97-6.592-2.715s-.35-3.2-.35-5.08,6.345-15.858,7.888-17.739,7.98-4.031,8.69-4.031,3.1.2,3.1.2-.062-.082-.165-.216c.267.134,4.453,2.334,5.944,2.458,1.543.134,28.157,1.162,28.157,1.162l.206-.041c1.152-1.83,4.823-7.641,5.553-8.248.854-.73,11.785-4.227,13.544-4.741s10.006-4.4,10.129-4.4,1.419,2.612,0,4.453-9.214,6.252-9.728,6.767c-.267.267-1.358,1.512-2.345,2.643l13.873-2.859s8.4-1.688,8.719-1.657c.833.062,1.635,4.854.926,5.759-.525.668-5.541,1.842-8.616,2.5-.01,0-.01,0-.021.01-.164.041-.329.072-.473.1a.382.382,0,0,1-.093.021.036.036,0,0,0-.021.01Z" transform="translate(-47.669 -43.649)"/>
      <path class="cls-33" d="M354.054,334.187v8.227s-9.9,9.255-10.932,10.932a22.072,22.072,0,0,1-5.142,4.885c-.771.391-11.312.946-14.017-.617-2.252-1.306-5.862-10.068-6.983-15.374a13.823,13.823,0,0,1-.339-2.643c0-4.247,3.661-15.045,5.265-16.968,1.039-1.244,5.265-4.823,8.145-7.23,1.594-1.327,2.787-2.293,2.787-2.293s-5.275,10.675-5.275,11.826,2.7,17.359,7.589,19.806,16.968-6.047,17.606-6.818S354.054,334.187,354.054,334.187Z" transform="translate(-47.669 -43.649)"/>
      <path class="cls-34" d="M330.052,315.4c-2.879,2.406-7.106,5.985-8.145,7.23-1.6,1.923-5.265,12.721-5.265,16.968a13.823,13.823,0,0,0,.339,2.643l-20.506-13.914c-.144-2.118-.319-4.412-.524-6.808V288.939c0-1.769-1.378-21.791-2.4-29.113a11.605,11.605,0,0,1,3.034,1.563c.854.864,14.222,30,15.683,32.908s14.315,18.809,14.315,18.809,2.221.308,2.828.987A3.868,3.868,0,0,1,330.052,315.4Z" transform="translate(-47.669 -43.649)"/>
      <path class="cls-31" d="M382.653,244.071l-3.62,5.584,3.085,24.588s-10.973,9.77-11.662,10.376-3.167,2.735-3.167,2.735a10.683,10.683,0,0,1,0,2.406c-.175.6-1.2,2.736-1.2,2.736l-12.032,41.69s-.648,2.962-1.3,3.733-12.721,9.255-17.606,6.818-7.589-18.644-7.589-19.806,5.275-11.826,5.275-11.826l6.684-12.073,12.6-30.09s-2.386-18.377-1.995-19.138,12.2-12.433,12.711-12.947,5.44-10.078,5.7-10.757,3.98,1.152,3.98,5.008a28.9,28.9,0,0,1-2.478,10.2c-.514.771-5.491,5.625-5.491,5.625l.771,2.941.072-.093c.751-.9,6.736-8.165,7.127-8.649.432-.514,10.541-14.911,10.541-14.911l6.088,5.831Z" transform="translate(-47.669 -43.649)"/>
      <path class="cls-31" d="M203.95,189.835s-7.627-9.17-12.855-7.37c-2.618.9-2.057,18.939-.514,21.167s13.54,8.741,16.111,4.8S203.95,189.835,203.95,189.835Z" transform="translate(-47.669 -43.649)"/>
      <path class="cls-31" d="M263.937,180.576s4.942-10.855,10.459-10.5c2.763.18,6.973,17.728,6.072,20.284s-10.759,12-14.278,8.874S263.937,180.576,263.937,180.576Z" transform="translate(-47.669 -43.649)"/>
      <path class="cls-38" d="M269.728,173.123l-.71,3.61h-2.951s-6.561-7.918-6.756-9.78-1.717-14.058-1.717-14.058C248.687,162.243,239,164.207,239,164.207l-1.028-.422-2.633,2.571-3.2-.607-.514.607a72.615,72.615,0,0,1-28.188-4.8s1.748,10.027,2.139,11.446-2.633,15.714-2.633,15.714l-6.448-2.561s-8.083-18.295-8.083-20.166,5.08-4.689,5.08-4.689a11.261,11.261,0,0,1-6.036-3.208c-1.522-1.594-2.19-4.309-2.478-6.324a21.779,21.779,0,0,1-.226-2.612c2.376,4.885,7.713-.072,9.255-1.738s18.254-24.938,23.786-26.347,35.726,2.694,37.536,3.6c1.789.895,8.381,6.294,8.381,6.294.936-2.057,0-7.322,0-7.322a15.017,15.017,0,0,1,3.445,10.15c-.391,5.913-3.445,12.34-3.445,12.34s7.682,2.437,7.805,3.98S269.728,173.123,269.728,173.123Z" transform="translate(-47.669 -43.649)"/>
      <path class="cls-39" d="M255.166,242.168c-4.484,3.26-15.282,9.893-26.367,7.713v-7.1a73.307,73.307,0,0,0,16.032-.586,57.953,57.953,0,0,0,10.016-2.653Z" transform="translate(-47.669 -43.649)"/>
      <path class="cls-39" d="M389.142,234.055l-6.489,10.016-17.338,7.805.072-.093c.751-.9,6.736-8.165,7.127-8.649.432-.514,10.541-14.911,10.541-14.911Z" transform="translate(-47.669 -43.649)"/>
      <polygon class="cls-40" points="333.678 103.965 332.566 103.885 331.455 103.805 321.447 227.84 323.669 228 325.892 228.159 333.678 103.965"/>
      <path class="cls-31" d="M387.343,255.774c-.452.792-11.2,5.975-11.59,6.242s-7.816,2.108-8.33,2.18-2.324-3.507-1.419-5.543,7.713-5.173,8.35-5.5,9.677-7.353,11.764-6.941C388.114,246.6,387.8,254.992,387.343,255.774Z" transform="translate(-47.669 -43.649)"/>
      <path class="cls-31" d="M386.376,264.751c-.257.977-10.6,5.111-11.569,5.368s-5.841,1.6-6.582,1.44c-.925-.206-2.468-4.813-.041-5.954,1.81-.854,5.79-2.694,6.047-2.756s8.936-5.245,11.117-5.111C386.191,257.789,386.633,263.764,386.376,264.751Z" transform="translate(-47.669 -43.649)"/>
      <path class="cls-31" d="M385.718,272.608c-.216.524-9,3.62-9.728,3.671s-5.44.566-6.129.7-2.612-3.188-.6-4.679,5.851-2.252,6.993-2.7,8.042-3.887,9.2-3.754C386.273,265.934,385.934,272.084,385.718,272.608Z" transform="translate(-47.669 -43.649)"/>
      <path class="cls-39" d="M387.343,255.774c-.452.792-11.2,5.975-11.59,6.242s-7.816,2.108-8.33,2.18-2.324-3.507-1.419-5.543,7.713-5.173,8.35-5.5a36.165,36.165,0,0,0,0,4.587c.2,1.316.864,2.879,1.162,2.879S385.152,257.532,387.343,255.774Z" transform="translate(-47.669 -43.649)"/>
      <path class="cls-39" d="M386.376,264.751c-.257.977-10.6,5.111-11.569,5.368s-5.841,1.6-6.582,1.44c-.925-.206-2.468-4.813-.041-5.954,1.81-.854,5.79-2.694,6.047-2.756a18.606,18.606,0,0,0-.175,3.733c.175,1.409.689,2.221.946,2.221A39.324,39.324,0,0,0,386.376,264.751Z" transform="translate(-47.669 -43.649)"/>
      <path class="cls-39" d="M385.718,272.608c-.216.524-9,3.62-9.728,3.671s-5.44.566-6.129.7-2.612-3.188-.6-4.679,5.851-2.252,6.993-2.7a23.476,23.476,0,0,0-.36,3.959c.113.895.36,1.974.771,1.974A48.209,48.209,0,0,0,385.718,272.608Z" transform="translate(-47.669 -43.649)"/>
      <path class="cls-31" d="M389.142,234.055c.771-1.028-3.385-7.242-5.7-7.07s-9.9,10.327-9.984,11.1,2.228,4.713,3.256,4.885S388.371,235.083,389.142,234.055Z" transform="translate(-47.669 -43.649)"/>
      <path class="cls-39" d="M193.152,197.719s-.9-7.97.471-8.784,7.07,2.785,9.512,6.427c0,0-4.285,1.5-4.328,3.728s5.313,4.071,5.313,4.071-6.6-.343-7.07-3.9,5.527-3.942,5.527-3.942-6.513-5.1-7.841-4.2S193.152,197.719,193.152,197.719Z" transform="translate(-47.669 -43.649)"/>
      <path class="cls-39" d="M277.264,183.579s-1.651-7.849-3.208-8.191-5.836,4.866-7.01,9.091c0,0,4.539.077,5.28,2.179s-3.764,5.534-3.764,5.534,6.157-2.4,5.486-5.924-6.486-2-6.486-2,4.58-6.888,6.124-6.451S277.264,183.579,277.264,183.579Z" transform="translate(-47.669 -43.649)"/>
      <path class="cls-41" d="M235.338,166.353s4.347-14.226,4.6-23.053S229.4,123.419,229.4,123.419s12.426,9.941,13.54,16.8-4.542,20.139-4.542,20.139a68.665,68.665,0,0,0,8.57-19.967s.943,12.083-9,23.4Z" transform="translate(-47.669 -43.649)"/>
      <path class="cls-41" d="M227.065,166.353S231.8,153.2,230,142.529s-8.484-11.569-9.77-11.955-10.284-.814-15.34,5.185c0,0,5.827-5.742,13.712-2.914s10.268,15.857,9.537,24.167a34.017,34.017,0,0,0-3.538-12.133c-3-5.35-5.056-8.006-6.084-7.835s-7.113,6.96-15.683,11.321-13.112,3.59-13.112,3.59a27.152,27.152,0,0,0,18.082-4.2c8.827-5.827,10.712-6.6,12-6.256S229.1,153.5,227.065,166.353Z" transform="translate(-47.669 -43.649)"/>
      <path class="cls-41" d="M202.945,188.714l-6.448-2.561s-8.083-18.295-8.083-20.166,5.08-4.689,5.08-4.689a11.261,11.261,0,0,1-6.036-3.208c-1.522-1.594-2.19-4.309-2.478-6.324.638,1.481,2.9,5.214,10.058,7.353,9.07,2.7,6.345-.309,8.4,2.437,0,0,1.748,10.027,2.139,11.446S202.945,188.714,202.945,188.714Z" transform="translate(-47.669 -43.649)"/>
      <path class="cls-41" d="M269.728,173.123l-.71,3.61h-2.951s-6.561-7.918-6.756-9.78-1.717-14.058-1.717-14.058a60.465,60.465,0,0,0,6.119-6.767s7.682,2.437,7.805,3.98S269.728,173.123,269.728,173.123Z" transform="translate(-47.669 -43.649)"/>
      <ellipse class="cls-42" cx="251.894" cy="186.639" rx="2.798" ry="4.451" transform="translate(-76.893 4.218) rotate(-10.263)"/>
      <ellipse class="cls-42" cx="218.783" cy="192.634" rx="2.798" ry="4.451" transform="translate(-78.488 -1.59) rotate(-10.262)"/>
      <g>
        <path class="cls-41" d="M265.4,192.56l-1.625-9.214-.864-4.874a2.711,2.711,0,0,0-1.121-1.759,2.869,2.869,0,0,0-1.913-.463c-3.136.226-5.44.473-6.983.668s-2.324.329-2.386.339c-.134.021-3.383.607-9.718,2.365a2.924,2.924,0,0,0-1.645,1.1,2.694,2.694,0,0,0-.442,2.036l.432,2.448.4,2.273,1.656,9.369a7.564,7.564,0,0,0,8.762,6.119l9.327-1.656a7.489,7.489,0,0,0,5.574-4.36A7.385,7.385,0,0,0,265.4,192.56Zm-6.551,6.314-9.327,1.656a5.082,5.082,0,0,1-5.882-4.114l-2.5-14.089a.25.25,0,0,1,.041-.185.538.538,0,0,1,.278-.123c6.2-1.728,9.451-2.314,9.482-2.324s2.982-.514,9.122-.977c.226-.021.3.02.309.031a.222.222,0,0,1,.092.154l2.5,14.089A5.08,5.08,0,0,1,258.854,198.874Z" transform="translate(-47.669 -43.649)"/>
        <path class="cls-41" d="M231.818,198.5l-1.666-9.41-.4-2.273-.422-2.406a2.762,2.762,0,0,0-1.121-1.759,2.929,2.929,0,0,0-1.913-.463c-3.137.237-5.44.483-6.983.679s-2.324.319-2.386.329c-.134.031-3.383.607-9.718,2.375a2.861,2.861,0,0,0-1.645,1.09,2.7,2.7,0,0,0-.442,2.036l2.489,14.089a7.579,7.579,0,0,0,8.762,6.129l9.327-1.656A7.564,7.564,0,0,0,231.818,198.5Zm-6.551,6.314-9.327,1.656a5.074,5.074,0,0,1-5.882-4.113l-2.5-14.089a.25.25,0,0,1,.041-.185.536.536,0,0,1,.278-.123c6.2-1.728,9.451-2.314,9.482-2.314s2.982-.524,9.122-.977c.226-.021.3.01.309.021a.248.248,0,0,1,.093.154l2.5,14.089A5.082,5.082,0,0,1,225.268,204.818Z" transform="translate(-47.669 -43.649)"/>
        <path class="cls-41" d="M229.387,189.453l-1.011-1.995a21.354,21.354,0,0,1,6.066-2,21.132,21.132,0,0,1,6-.141l-.265,2.221a18.881,18.881,0,0,0-5.361.126A19.1,19.1,0,0,0,229.387,189.453Z" transform="translate(-47.669 -43.649)"/>
      </g>
      <path class="cls-32" d="M252.564,224.5a12.7,12.7,0,0,1-8.916,6.931,13.062,13.062,0,0,1-13.893-6.777,14.248,14.248,0,0,1-1.265-3.167c-.082-.319-.165-.638-.226-.967a14.11,14.11,0,0,1-.216-1.573l24.784-4.874.514-.1a14.5,14.5,0,0,1,.391,1.532A14.107,14.107,0,0,1,252.564,224.5Z" transform="translate(-47.669 -43.649)"/>
      <path class="cls-43" d="M253.037,216.315c-.267.494-12.69,4.257-24.547,5.173-.082-.319-.165-.638-.226-.967a14.11,14.11,0,0,1-.216-1.573l24.784-4.874A5.445,5.445,0,0,1,253.037,216.315Z" transform="translate(-47.669 -43.649)"/>
      <path class="cls-44" d="M252.564,224.5a12.7,12.7,0,0,1-8.916,6.931,13.062,13.062,0,0,1-13.893-6.777C233.272,222.845,244.512,217.981,252.564,224.5Z" transform="translate(-47.669 -43.649)"/>
      <path class="cls-40" d="M265.326,353.675a.747.747,0,0,1,.082-.021.036.036,0,0,0-.021.01Z" transform="translate(-47.669 -43.649)"/>
      <path class="cls-40" d="M265.5,353.634c.113-.031.278-.062.473-.1C265.81,353.572,265.645,353.6,265.5,353.634Z" transform="translate(-47.669 -43.649)"/>
      <polygon class="cls-45" points="210.235 81.639 230.729 64.783 175.719 64.712 123.967 88.32 153.667 95.472 210.235 81.639"/>
      <path class="cls-46" d="M259.776,127.9s-28.928.214-62.282,15.1l-4.633-8.847s35.756-22.389,67.3-14.674Z" transform="translate(-47.669 -43.649)"/>
    </g>
  </g>
</svg>
